<svg version="1.1" id="Layer_1" xmlns="http://www.w3.org/2000/svg" xmlns:xlink="http://www.w3.org/1999/xlink" x="0px" y="0px"
	 width="100%" viewBox="0 0 157 150" enable-background="new 0 0 157 150" xml:space="preserve">
<path fill="#000000" opacity="1.000000" stroke="none" 
	d="
M1.000000,54.000000 
	C1.000000,37.000000 1.062551,20.499510 0.933211,4.000524 
	C0.913592,1.497964 1.500469,0.932163 4.000107,0.936386 
	C54.333298,1.021403 104.666702,1.021403 154.999893,0.936386 
	C157.499542,0.932163 158.068207,1.500424 158.063721,4.000114 
	C157.977585,51.999958 157.977585,100.000038 158.063721,147.999893 
	C158.068207,150.499588 157.499542,151.067841 154.999893,151.063614 
	C104.666702,150.978592 54.333298,150.978592 4.000107,151.063614 
	C1.500469,151.067841 0.927331,150.500168 0.935267,147.999802 
	C1.034187,116.833443 1.000000,85.666664 1.000000,54.000000 
z"/>
<path fill="#161043" opacity="1.000000" stroke="none" 
	d="
M70.574524,36.389397 
	C72.918968,23.675081 80.016991,15.378697 91.672455,10.549314 
	C97.062241,8.316086 102.630768,6.911787 108.189987,5.347865 
	C109.921310,4.860810 111.465935,4.878649 112.810661,6.186422 
	C114.534477,7.862874 112.989273,9.264798 112.286232,10.599558 
	C108.769684,17.275911 107.751846,23.908632 111.479156,30.960159 
	C112.584015,33.050388 112.547096,35.744133 112.982513,38.560936 
	C112.570831,39.781155 112.485191,40.585079 113.323486,41.529278 
	C114.058289,42.070786 114.561943,42.405132 115.393112,42.789799 
	C116.383301,43.382694 117.188873,43.631798 118.274834,44.079102 
	C119.360756,44.719887 119.981705,45.430389 121.085449,46.106483 
	C125.299774,50.060944 128.176147,54.407959 129.421387,60.169594 
	C129.839523,61.638435 129.674225,62.740055 129.684387,64.263649 
	C130.763947,70.264320 129.108719,75.803017 129.509537,81.800285 
	C129.537033,83.080055 129.629745,83.924820 129.607880,85.182861 
	C129.155899,93.403915 126.727043,100.282234 120.089417,105.595200 
	C117.519951,106.562386 115.305580,107.358849 113.087418,109.072159 
	C111.900208,109.417206 111.073341,109.458435 109.821106,109.497925 
	C105.642380,109.497566 101.888435,109.477608 97.695641,109.523209 
	C96.667603,109.523285 96.078468,109.513802 95.043091,109.502365 
	C90.696495,109.517113 86.795784,109.441483 82.444122,109.581879 
	C78.974884,110.193260 75.944878,110.201042 72.455605,109.797005 
	C66.920540,110.157913 61.836838,110.337387 56.327721,109.695328 
	C52.120083,110.115623 48.901863,108.446075 45.269089,106.816437 
	C44.649025,106.630257 44.398079,106.575752 43.772247,106.488220 
	C43.172783,106.356850 42.948212,106.258507 42.449986,105.923683 
	C41.047718,102.120644 37.869267,99.845825 36.221462,96.201309 
	C35.738060,95.288422 35.544174,94.621529 35.079681,93.689133 
	C34.862804,93.142456 34.788219,92.917862 34.647484,92.343338 
	C34.275116,89.855797 33.654236,87.769295 33.527351,85.224380 
	C33.496899,84.594139 33.482021,84.339523 33.419956,83.699524 
	C32.944866,81.994682 33.148457,80.666389 33.299812,78.928101 
	C32.633713,74.035904 32.928699,69.569199 33.500923,64.696037 
	C33.505672,64.014435 33.505131,63.743607 33.500572,63.069134 
	C33.575977,62.142910 33.715267,61.636974 34.050533,60.793667 
	C34.442379,57.409977 35.865692,54.802727 37.349049,51.828896 
	C37.977551,50.317158 38.883842,49.478600 40.011765,48.350430 
	C42.303352,45.897221 44.835651,44.385120 47.703491,42.689476 
	C49.450752,41.841579 50.906651,41.351780 52.881607,41.504295 
	C58.080837,41.241570 62.942730,42.074654 68.003006,40.832756 
	C68.924805,40.245045 69.348244,39.643894 69.638359,38.604622 
	C69.990387,37.782055 70.247856,37.237110 70.574524,36.389397 
z"/>
<path fill="#15174C" opacity="1.000000" stroke="none" 
	d="
M95.430420,115.586014 
	C94.538559,116.146530 93.976517,116.493362 93.112152,116.973633 
	C92.609589,117.250450 92.409348,117.393837 91.877335,117.697746 
	C88.555740,118.583626 88.423462,120.948616 88.511261,123.332245 
	C88.675789,127.798691 88.363174,132.214813 87.461639,136.592987 
	C86.884834,139.394150 85.742157,141.910553 83.651268,144.390488 
	C82.762245,145.851379 81.594238,146.399460 80.176010,147.229385 
	C79.079269,147.512115 78.322357,147.507309 77.237076,147.232910 
	C76.909668,147.041275 76.992828,147.033051 76.995178,147.074768 
	C76.639374,146.643478 76.114601,146.510284 75.362473,146.238159 
	C68.251472,142.076797 71.284241,135.678665 71.597321,130.160065 
	C71.756538,127.353554 72.369820,124.690147 70.988777,121.659798 
	C70.515884,120.317810 69.966141,119.404381 70.165634,117.917526 
	C70.429901,117.320564 70.583511,117.104362 71.101669,116.729782 
	C71.729851,116.587479 71.993477,116.603561 72.618088,116.779861 
	C77.700058,121.353302 75.875832,126.915062 75.585762,132.546768 
	C75.414177,133.572449 75.291931,134.243729 75.244614,135.243103 
	C75.286934,135.984009 75.319603,136.405136 75.395737,137.143280 
	C75.457352,137.674942 75.480377,137.889191 75.563019,138.422607 
	C77.570900,141.897461 79.152756,140.137405 80.503815,138.260178 
	C82.565460,135.395645 82.391998,131.981216 82.486282,128.674026 
	C82.547867,126.513733 82.561005,124.348915 82.404205,121.815926 
	C82.008369,119.507622 82.480461,117.717056 83.557625,115.642784 
	C88.738174,109.224075 93.768028,107.983650 99.239929,111.893646 
	C99.827782,115.212318 97.300186,114.710342 95.430420,115.586014 
z"/>
<path fill="#2B2052" opacity="1.000000" stroke="none" 
	d="
M113.897491,113.826927 
	C112.891197,117.918938 112.893776,121.399658 114.564796,125.186813 
	C116.394905,129.334534 114.287521,132.834732 111.095840,135.731506 
	C108.248093,138.316132 105.317322,138.084335 101.874977,136.925812 
	C98.107857,135.657990 98.961082,133.194748 99.683929,130.297043 
	C100.079735,129.854477 100.253380,129.716110 100.751434,129.641327 
	C101.242218,129.845505 101.408585,129.986084 101.760300,130.384888 
	C102.528839,132.151459 103.806664,131.786377 105.266205,131.764832 
	C106.577202,131.980301 107.522118,131.921036 108.569199,130.983521 
	C111.802666,128.575745 109.754631,125.898895 109.423462,123.025391 
	C108.551903,120.682869 108.444778,118.611351 108.584747,116.097534 
	C109.458801,113.024620 110.880943,111.675125 113.897491,113.826927 
z"/>
<path fill="#BFF5BB" opacity="1.000000" stroke="none" 
	d="
M115.239502,39.513039 
	C116.899399,35.616722 116.155952,31.445593 118.652603,28.018192 
	C119.417267,27.630684 119.858437,27.472994 120.675774,27.445881 
	C123.202744,28.890842 123.853615,31.661844 126.270409,33.319580 
	C126.924736,34.183052 127.168266,34.851040 127.315079,35.925125 
	C127.324692,36.520409 127.308365,36.757881 127.206024,37.340012 
	C126.973618,38.131855 126.802956,38.569481 126.466370,39.317268 
	C126.207634,39.837021 126.085991,40.035263 125.745354,40.503853 
	C124.833893,41.376713 124.140266,41.977772 123.076279,42.651161 
	C121.358116,43.262398 120.076828,42.651596 118.451363,42.211811 
	C117.159149,41.567768 116.376076,40.792019 115.239502,39.513039 
z"/>
<path fill="#ED1E96" opacity="1.000000" stroke="none" 
	d="
M38.421631,106.645020 
	C36.205341,107.628891 37.427284,109.487656 36.453705,110.924133 
	C34.931805,111.503235 34.764809,112.839088 33.902809,113.550705 
	C32.571808,114.649498 31.137327,115.171822 29.445177,114.518501 
	C27.603724,113.807526 27.202450,112.389847 27.798801,110.309151 
	C28.029552,110.007294 28.162664,109.534393 28.247953,109.304039 
	C28.444847,108.539062 28.489574,107.990898 28.881073,107.309158 
	C29.103924,107.150497 29.087141,107.077957 29.124355,107.077042 
	C29.278225,106.879730 29.394878,106.683334 29.773468,106.266029 
	C30.035406,106.045128 30.217484,105.583351 30.302391,105.350128 
	C30.430056,104.905724 30.472815,104.694527 30.799181,104.328285 
	C31.082788,104.173241 31.096666,104.080589 31.143360,104.084335 
	C31.296618,103.889046 31.403181,103.690018 31.783855,103.292145 
	C32.057964,103.093285 32.023598,103.028435 32.059364,103.036644 
	C33.032181,101.828171 32.754375,100.176941 33.878998,98.690918 
	C37.868259,97.938820 39.226189,100.364410 40.266479,103.619171 
	C40.259781,104.265373 40.224583,104.521988 40.045647,105.137161 
	C39.610958,105.927086 39.236691,106.266365 38.421631,106.645020 
z"/>
<path fill="#1E1F50" opacity="1.000000" stroke="none" 
	d="
M114.127060,114.155853 
	C112.507545,113.886154 110.634323,112.761322 109.993164,115.857941 
	C108.786522,118.471474 110.019974,120.804886 109.674210,123.485458 
	C109.324089,124.043167 109.128197,124.229523 108.542252,124.536728 
	C107.878906,124.642914 107.605606,124.628250 106.952774,124.452805 
	C102.798714,118.435883 104.589752,112.929031 111.951401,108.737610 
	C114.438438,107.736496 116.417061,106.559296 118.948776,105.675095 
	C121.692986,105.073608 123.445930,105.802109 124.299446,108.567886 
	C122.269371,110.561234 119.453598,110.146225 117.192017,111.991966 
	C117.027557,112.549858 116.957977,112.774956 116.581169,113.044098 
	C115.789215,113.285187 115.174126,113.495529 114.301727,113.814873 
	C114.073326,114.044388 114.138954,114.110733 114.127060,114.155853 
z"/>
<path fill="#C91689" opacity="1.000000" stroke="none" 
	d="
M34.644821,78.724731 
	C35.011375,80.374809 35.046974,81.754463 34.992832,83.541962 
	C31.376680,87.489220 26.712069,85.404068 22.338276,86.643753 
	C20.182512,86.419449 19.534990,84.627434 18.114403,83.292137 
	C17.899153,82.723770 17.801310,82.453697 17.890812,81.794518 
	C23.135830,78.472900 28.489222,77.167313 34.644821,78.724731 
z"/>
<path fill="#38BBC3" opacity="1.000000" stroke="none" 
	d="
M138.556824,72.436600 
	C144.970444,79.918320 144.367508,90.116127 137.118073,96.705093 
	C136.713959,96.187111 136.506195,95.902008 135.906723,95.528015 
	C135.285812,94.563805 135.354660,93.775139 135.597504,92.682159 
	C135.711472,92.189301 135.765152,91.993240 135.922867,91.510071 
	C136.204117,90.849648 136.346344,90.463234 136.501801,89.749039 
	C136.669510,87.660614 137.678375,86.090843 137.771545,83.958138 
	C141.087387,80.155975 137.427383,76.508804 138.556824,72.436600 
z"/>
<path fill="#F1808B" opacity="1.000000" stroke="none" 
	d="
M44.166786,106.644089 
	C47.597431,105.048424 50.750248,107.753281 54.696716,108.016632 
	C57.459644,109.202118 58.707058,111.586945 60.996162,113.316162 
	C61.328693,113.812607 61.427616,114.034393 61.559113,114.621559 
	C61.452103,116.021011 60.910263,116.800896 59.744522,117.541473 
	C56.772820,118.199730 55.131927,116.447754 53.081673,114.828781 
	C52.617805,114.563446 52.428696,114.468307 51.970573,114.212791 
	C51.388546,113.791275 51.102119,113.504059 50.639545,112.979340 
	C49.977406,112.406639 49.614517,111.962830 49.101498,111.278923 
	C47.425545,109.741280 45.967903,108.386108 44.166786,106.644089 
z"/>
<path fill="#991678" opacity="1.000000" stroke="none" 
	d="
M27.742771,110.212860 
	C29.434967,114.530724 30.594013,114.881836 33.727364,111.665092 
	C34.298733,111.078514 34.630871,110.221710 35.908493,110.921875 
	C35.556900,113.374741 37.738354,116.280594 34.241673,117.900871 
	C32.115959,118.885880 30.520039,118.207649 28.780546,117.260223 
	C25.561316,115.506866 25.522678,113.158615 27.742771,110.212860 
z"/>
<path fill="#891862" opacity="1.000000" stroke="none" 
	d="
M31.541271,41.280388 
	C32.509304,39.114273 32.003601,36.928173 32.247784,34.289787 
	C35.460072,32.527752 33.722061,30.205536 33.688442,28.331726 
	C33.652763,26.343012 32.664913,24.592035 31.817081,22.469593 
	C31.656895,21.928659 31.617294,21.705183 31.764317,21.196976 
	C31.922827,19.182882 33.391613,18.414160 34.566399,17.128231 
	C35.083542,17.117086 35.318855,17.253611 35.802620,17.712521 
	C36.556805,21.633636 37.822128,24.989750 39.122959,28.363707 
	C39.831264,30.200846 39.623775,32.257919 38.862442,34.546471 
	C37.786079,37.325813 35.414230,38.610008 33.844986,40.995007 
	C33.136276,41.496174 32.666710,41.630539 31.541271,41.280388 
z"/>
<path fill="#E63E61" opacity="1.000000" stroke="none" 
	d="
M35.575386,18.246124 
	C35.180897,17.901226 35.109646,17.718529 34.943306,17.258196 
	C41.331154,9.871718 48.056789,11.126888 52.783241,20.658371 
	C52.054958,22.132174 53.104496,23.376562 52.428825,24.826269 
	C52.001457,25.215387 51.778496,25.305334 51.198719,25.350227 
	C49.412842,24.523399 48.978699,23.073214 48.363754,21.715662 
	C46.154007,16.837421 44.926292,16.346621 39.091064,18.143192 
	C37.807224,18.415155 36.863178,18.609818 35.575386,18.246124 
z"/>
<path fill="#DA4A6A" opacity="1.000000" stroke="none" 
	d="
M51.551796,25.814762 
	C51.987377,24.213293 52.191952,22.924807 52.623665,21.318996 
	C54.122719,31.165512 60.413307,35.737309 70.390640,36.297783 
	C70.679123,36.750931 70.698212,37.407608 70.703949,38.391712 
	C68.816689,40.147800 66.913872,39.450588 64.650909,38.714119 
	C61.594181,38.062366 59.162140,36.861805 56.476601,35.298191 
	C53.080910,32.896271 50.606312,30.371273 51.551796,25.814762 
z"/>
<path fill="#38265B" opacity="1.000000" stroke="none" 
	d="
M80.277390,147.040039 
	C80.558342,145.926926 81.142876,145.166809 81.907623,144.171753 
	C85.244072,142.708374 86.535645,140.022385 87.651833,136.746674 
	C88.462341,135.676025 89.192329,135.065292 90.531670,134.921722 
	C92.679230,139.581360 89.506348,142.382080 87.014999,145.808456 
	C86.717682,146.288452 86.567490,146.437500 86.234299,146.845886 
	C86.051285,147.105225 86.006905,147.028198 86.045364,147.050476 
	C84.288834,147.854752 82.423302,147.424622 80.277390,147.040039 
z"/>
<path fill="#5E245C" opacity="1.000000" stroke="none" 
	d="
M71.063065,116.472687 
	C70.960388,118.047523 70.946228,119.213661 70.941177,120.822922 
	C69.175407,119.736038 66.975357,120.146095 64.512138,119.986298 
	C63.003021,119.463005 62.738392,118.336952 62.235435,116.969696 
	C62.101765,116.139465 62.137466,115.656425 62.384209,114.823898 
	C62.823902,114.027802 63.187447,113.653671 63.980042,113.155807 
	C67.378914,112.313736 69.913551,112.763084 71.063065,116.472687 
z"/>
<path fill="#532373" opacity="1.000000" stroke="none" 
	d="
M90.947968,134.578278 
	C90.442764,135.561646 90.002068,136.109665 89.380447,136.853714 
	C88.260208,136.514618 87.629913,135.618683 87.732635,134.632538 
	C88.228981,129.867676 87.818977,125.088852 88.080574,120.324776 
	C88.147186,119.111649 88.513710,118.056366 90.284485,117.650162 
	C92.305061,120.741013 91.153618,123.973343 91.286324,127.553375 
	C91.085663,130.051697 91.049072,132.097336 90.947968,134.578278 
z"/>
<path fill="#952179" opacity="1.000000" stroke="none" 
	d="
M22.407249,86.932526 
	C25.439987,83.482529 30.129593,85.285179 34.483147,83.951752 
	C34.903095,83.949799 35.090660,84.404938 35.069962,84.650200 
	C34.004929,86.912895 30.376122,87.106911 31.226505,90.759499 
	C31.404726,91.835144 31.379019,92.560173 31.126690,93.640388 
	C30.873196,94.209320 30.736294,94.420410 30.292210,94.850723 
	C28.878571,94.090416 28.033373,92.885132 28.029217,91.408211 
	C28.019083,87.806824 26.130499,86.601578 22.407249,86.932526 
z"/>
<path fill="#243272" opacity="1.000000" stroke="none" 
	d="
M128.178223,116.193039 
	C125.894768,114.947823 125.675064,112.761925 124.235794,111.051331 
	C123.872742,110.652420 123.789719,110.432373 123.923233,109.934418 
	C125.628128,108.784195 126.803551,109.604469 128.282562,110.523987 
	C132.077209,111.371223 129.718567,107.336609 132.041077,106.644684 
	C133.211945,106.515747 133.868912,106.910248 134.681824,107.819885 
	C135.956406,110.558357 134.825912,112.671455 133.810669,115.196823 
	C132.108078,117.100739 130.271469,116.432274 128.178223,116.193039 
z"/>
<path fill="#36999A" opacity="1.000000" stroke="none" 
	d="
M121.279480,28.320572 
	C120.561508,28.053839 120.115028,28.005856 119.334244,27.907400 
	C121.833313,24.797421 125.166534,24.966032 128.318741,26.941582 
	C130.589462,28.364697 132.291367,30.503424 129.994354,33.787815 
	C126.802841,34.550941 127.940620,30.901260 125.702530,30.136810 
	C123.994881,29.819012 122.672234,29.431761 121.279480,28.320572 
z"/>
<path fill="#2B3C63" opacity="1.000000" stroke="none" 
	d="
M95.490082,115.884521 
	C95.350212,113.626289 97.497780,114.234451 98.868607,113.121918 
	C105.040443,114.351242 107.369659,121.830688 102.672585,126.931763 
	C104.159065,120.568642 101.973328,116.578110 95.490082,115.884521 
z"/>
<path fill="#42B0A6" opacity="1.000000" stroke="none" 
	d="
M125.593231,38.283855 
	C125.744705,37.976299 125.908051,37.517170 125.961121,37.279362 
	C126.727753,36.105419 126.487320,34.217552 128.804153,34.801979 
	C129.249146,38.809505 125.267250,42.084614 127.940201,46.497406 
	C128.293701,47.463257 128.124069,47.945934 127.175217,48.405937 
	C125.103912,48.303852 124.205452,47.262138 123.663361,45.335197 
	C123.560318,43.430988 123.898804,42.034271 124.643829,40.304115 
	C124.873459,39.937172 125.006035,39.560318 125.036407,39.362892 
	C125.191780,38.974117 125.316765,38.782764 125.593231,38.283855 
z"/>
<path fill="#E0E5EE" opacity="1.000000" stroke="none" 
	d="
M127.987762,116.314102 
	C129.268478,115.315506 131.011826,116.772964 132.719986,115.157074 
	C133.377197,114.662247 133.683670,114.355652 134.234818,113.837509 
	C136.163513,112.758331 136.326553,110.822556 137.634460,109.317520 
	C139.946182,111.138290 139.460526,113.381744 138.082489,115.345329 
	C136.602829,117.453674 134.260315,118.620453 131.743423,117.851669 
	C130.581207,117.496674 129.349274,117.103554 127.987762,116.314102 
z"/>
<path fill="#5CEDC7" opacity="1.000000" stroke="none" 
	d="
M131.545837,52.536518 
	C135.301865,53.760895 136.588974,56.999599 138.017456,60.500996 
	C138.160858,61.068020 138.295654,61.275570 138.299118,61.830956 
	C137.955994,62.308826 137.744202,62.438869 137.162750,62.626442 
	C134.521301,62.373646 133.578613,60.485447 132.139923,58.619209 
	C131.120743,56.658627 130.380371,55.006176 131.545837,52.536518 
z"/>
<path fill="#7C146F" opacity="1.000000" stroke="none" 
	d="
M63.693810,133.634460 
	C63.914650,134.150818 63.955238,134.333832 64.011696,134.797607 
	C63.599525,137.753967 61.984669,139.461716 59.208054,140.571487 
	C57.711826,140.421417 57.055019,139.689133 56.525505,138.326782 
	C56.843506,135.183029 58.238098,133.177017 61.286888,132.126740 
	C62.468952,132.219177 63.093719,132.602463 63.693810,133.634460 
z"/>
<path fill="#8D2B73" opacity="1.000000" stroke="none" 
	d="
M15.161306,68.907532 
	C14.161274,64.339081 16.761234,60.526737 18.642036,56.172485 
	C19.118649,55.816711 19.313429,55.671234 19.849979,55.651806 
	C20.334732,55.973206 20.477715,56.168556 20.727272,56.710278 
	C20.966282,59.316814 19.449118,61.027454 18.765263,63.387093 
	C17.960670,65.480820 17.486397,67.356270 15.161306,68.907532 
z"/>
<path fill="#9B2C64" opacity="1.000000" stroke="none" 
	d="
M48.951637,111.451767 
	C49.385796,111.322762 49.888405,111.549080 50.645206,111.901741 
	C51.168613,112.224197 51.423130,112.437828 51.814087,112.867325 
	C51.965221,113.065681 51.953331,113.000465 51.937912,113.029816 
	C57.255112,118.199486 57.684723,119.670479 54.564293,124.849388 
	C55.321728,119.408852 50.072071,116.370438 48.951637,111.451767 
z"/>
<path fill="#80186F" opacity="1.000000" stroke="none" 
	d="
M14.116454,69.463516 
	C14.174749,69.017189 14.568475,69.092331 14.764853,69.132370 
	C17.770233,72.684677 17.953806,76.971443 18.366219,81.532257 
	C18.209820,82.095070 18.182579,82.278252 18.076166,82.727631 
	C14.719805,81.469849 13.988100,78.612633 14.007594,75.366089 
	C14.018516,73.547310 14.040925,71.728592 14.116454,69.463516 
z"/>
<path fill="#529CBD" opacity="1.000000" stroke="none" 
	d="
M133.834335,108.208694 
	C133.173340,107.559265 132.812576,107.112717 132.264496,106.444427 
	C131.338318,106.014397 130.904846,105.499680 130.623383,104.449120 
	C130.643356,103.863266 130.692581,103.631378 130.893860,103.079254 
	C131.816818,101.381203 131.978470,99.383438 134.566711,99.793747 
	C135.661636,102.027695 134.018997,104.422127 136.043228,106.619232 
	C136.114929,107.421669 135.858871,107.822678 135.185364,108.321060 
	C134.615967,108.452980 134.375275,108.432289 133.834335,108.208694 
z"/>
<path fill="#660B59" opacity="1.000000" stroke="none" 
	d="
M56.778442,137.653870 
	C57.569942,138.550278 58.059322,139.112808 58.774628,139.842468 
	C59.354248,140.353180 59.506351,140.765503 59.229408,141.549316 
	C56.411598,142.439178 54.282227,141.508820 52.236240,139.428879 
	C51.533871,138.042511 52.259403,137.526154 53.463463,136.897461 
	C54.818886,136.641556 55.681469,136.824158 56.778442,137.653870 
z"/>
<path fill="#821D60" opacity="1.000000" stroke="none" 
	d="
M31.644176,21.148626 
	C31.970026,21.117073 31.989111,21.321899 32.036896,21.833958 
	C33.561398,25.603590 34.532574,29.121401 32.910179,33.249084 
	C32.620319,33.615658 32.288509,33.824142 32.121628,33.926857 
	C29.515478,29.923759 29.036896,25.722223 31.644176,21.148626 
z"/>
<path fill="#A61AB2" opacity="1.000000" stroke="none" 
	d="
M62.623932,116.798447 
	C65.324524,116.973328 63.934608,118.494682 64.076836,119.730453 
	C64.068596,120.213097 64.022758,120.395851 63.866634,120.838837 
	C63.626846,121.292999 63.497353,121.486938 63.228683,122.005692 
	C62.872593,123.317390 62.595856,124.258881 61.024635,124.506317 
	C57.614468,120.775948 57.853413,119.599442 62.623932,116.798447 
z"/>
<path fill="#3C7BAA" opacity="1.000000" stroke="none" 
	d="
M134.701172,108.511032 
	C135.128983,107.863625 135.407410,107.545090 135.977020,107.091621 
	C136.643784,107.577759 137.019363,108.198822 137.646027,108.974228 
	C138.072510,111.331154 138.386612,113.583954 135.494720,114.866806 
	C133.240067,113.067490 135.716125,110.776070 134.701172,108.511032 
z"/>
<path fill="#7F377D" opacity="1.000000" stroke="none" 
	d="
M59.368675,141.767151 
	C59.021702,141.434494 59.010765,141.027405 59.000187,140.314972 
	C61.046444,139.036667 62.262489,137.230621 63.784149,135.282684 
	C65.336662,139.080460 62.552044,140.407104 59.368675,141.767151 
z"/>
<path fill="#9EEEB3" opacity="1.000000" stroke="none" 
	d="
M129.333374,34.971134 
	C127.809006,34.831745 127.107910,35.633995 126.265457,36.829674 
	C126.019493,36.289192 126.024796,35.536827 126.035889,34.408566 
	C125.342987,32.233360 125.007271,30.455570 126.629471,28.494175 
	C130.382736,28.905230 127.495117,32.379562 129.593918,33.963856 
	C129.958023,34.479099 129.857300,34.732643 129.333374,34.971134 
z"/>
<path fill="#832361" opacity="1.000000" stroke="none" 
	d="
M53.952118,137.919861 
	C53.237671,138.297485 52.769764,138.491180 52.172142,138.912827 
	C50.046181,135.399857 51.114433,131.684387 52.285763,127.582748 
	C52.683369,127.159241 52.930408,127.121521 53.425320,127.361664 
	C54.033836,128.288864 54.182030,128.994141 54.223652,130.072357 
	C54.186863,130.861328 54.129791,131.302917 53.993397,132.054382 
	C53.834564,132.767654 53.745171,133.171082 53.692566,133.880341 
	C53.954967,135.355820 54.803726,136.446320 53.952118,137.919861 
z"/>
<path fill="#9B1775" opacity="1.000000" stroke="none" 
	d="
M30.032064,95.441833 
	C30.014011,94.853279 30.042999,94.636620 30.116940,94.095154 
	C32.900127,94.076691 33.756351,95.914291 33.778709,98.693886 
	C33.838024,100.405739 33.747952,101.699707 32.386082,102.886650 
	C32.654301,100.291229 31.118477,98.121681 30.032064,95.441833 
z"/>
<path fill="#A1F0E6" opacity="1.000000" stroke="none" 
	d="
M137.523102,62.428238 
	C137.834656,61.873138 137.877380,61.671501 137.973083,61.165169 
	C141.141235,64.008553 138.865479,67.654488 138.984833,71.487656 
	C138.999771,71.894707 138.964951,71.898689 138.954346,71.913727 
	C137.834091,72.155548 137.331451,71.437485 136.778748,70.183876 
	C136.582367,67.406418 136.085876,65.023201 137.523102,62.428238 
z"/>
<path fill="#DDDDE5" opacity="1.000000" stroke="none" 
	d="
M91.494675,127.821938 
	C90.944260,124.858025 90.550415,121.709366 91.087723,118.086945 
	C91.069168,117.395714 91.111420,117.181023 91.481895,116.964691 
	C91.973244,117.010376 92.136375,117.057693 92.554672,117.106041 
	C91.547371,120.532425 92.352020,124.142838 91.494675,127.821938 
z"/>
<path fill="#D8D9E3" opacity="1.000000" stroke="none" 
	d="
M124.255859,109.670746 
	C124.177734,109.982521 124.039955,110.421371 123.997856,110.646919 
	C121.884216,111.275604 119.812675,111.678741 117.347000,112.181030 
	C118.051353,109.426102 120.686325,109.497101 123.439453,109.023544 
	C123.990173,109.103134 124.162079,109.231049 124.255859,109.670746 
z"/>
<path fill="#229CBA" opacity="1.000000" stroke="none" 
	d="
M134.988190,99.700859 
	C132.651398,100.244888 133.272446,102.366272 132.227020,103.753036 
	C129.801331,101.676003 130.502792,99.470856 132.457794,96.988663 
	C133.326797,96.071686 134.045273,95.695816 135.289764,95.550858 
	C135.963196,95.645493 136.226013,95.725494 136.516541,96.216644 
	C137.393143,98.223061 135.572250,98.451248 134.988190,99.700859 
z"/>
<path fill="#891862" opacity="1.000000" stroke="none" 
	d="
M19.474257,55.021530 
	C20.535540,52.709213 21.742468,50.750893 23.217304,48.574810 
	C23.741604,48.378841 23.997997,48.400639 24.456749,48.751328 
	C25.248505,52.158669 23.052919,53.659065 20.753674,55.391052 
	C20.126431,55.438156 19.873165,55.406845 19.474257,55.021530 
z"/>
<path fill="#891892" opacity="1.000000" stroke="none" 
	d="
M63.927696,133.548584 
	C63.399471,133.717789 62.924885,133.467773 62.207035,133.104477 
	C61.205605,132.135971 60.817646,131.169556 61.223091,129.636536 
	C61.705925,128.804276 62.147255,128.527420 63.100647,128.478241 
	C63.719463,128.671371 63.940556,128.819778 64.103638,129.363403 
	C64.024200,130.882202 64.002769,132.005783 63.927696,133.548584 
z"/>
<path fill="#4DD8B6" opacity="1.000000" stroke="none" 
	d="
M126.743851,48.449245 
	C127.131325,47.838772 127.448738,47.597958 127.929733,47.105171 
	C129.272339,47.812256 130.742020,48.526062 130.735428,50.860050 
	C128.307648,51.889931 127.188110,50.794308 126.743851,48.449245 
z"/>
<path fill="#D9D8E0" opacity="1.000000" stroke="none" 
	d="
M79.557442,146.685852 
	C81.840347,147.299484 83.649834,146.922226 85.766556,146.722046 
	C83.274368,148.931183 80.209023,147.782089 77.077377,147.433044 
	C77.510506,146.027847 78.374596,146.661621 79.557442,146.685852 
z"/>
<path fill="#BFF5BB" opacity="1.000000" stroke="none" 
	d="
M113.225204,43.141991 
	C109.395401,42.388309 110.953934,40.659100 112.558464,38.972157 
	C113.086960,39.276554 113.242271,39.592571 113.912354,40.193283 
	C114.771980,41.537586 114.403313,42.350895 113.225204,43.141991 
z"/>
<path fill="#E0CCDE" opacity="1.000000" stroke="none" 
	d="
M43.636116,106.186722 
	C43.823311,106.257240 43.813004,106.508430 43.855438,106.626633 
	C42.228561,106.813461 40.559250,106.882103 38.477539,106.864151 
	C38.169720,106.518257 38.338573,106.311417 38.742783,106.048431 
	C39.955948,105.129845 41.072872,104.826752 42.707100,105.688171 
	C43.089661,105.940163 43.448917,106.116211 43.636116,106.186722 
z"/>
<path fill="#72256D" opacity="1.000000" stroke="none" 
	d="
M64.220505,128.800568 
	C63.576088,129.128372 63.140629,129.085190 62.378616,129.007095 
	C61.063858,128.712524 60.686607,128.059723 60.979675,126.787117 
	C61.419960,126.181366 61.752892,125.915314 62.442383,125.622742 
	C62.960873,125.551628 63.172497,125.570351 63.623615,125.799301 
	C63.863113,126.009521 64.007736,126.421944 63.996117,126.640152 
	C64.378647,127.312492 64.527000,127.836235 64.220505,128.800568 
z"/>
<path fill="#A379A1" opacity="1.000000" stroke="none" 
	d="
M63.916138,125.597565 
	C63.863113,126.009521 63.470356,125.990059 63.277435,125.952095 
	C61.854389,124.663757 62.682476,123.161034 62.847542,121.431931 
	C63.118328,121.091064 63.437275,121.106476 63.596809,121.102768 
	C63.827282,122.461250 63.898220,123.823425 63.916138,125.597565 
z"/>
<path fill="#832361" opacity="1.000000" stroke="none" 
	d="
M52.585457,127.427551 
	C52.737221,126.546745 53.038109,125.896530 53.560268,125.080101 
	C53.781540,124.913887 54.010033,124.996292 54.122520,125.042068 
	C54.562374,125.448074 54.747551,125.873009 54.763702,126.706551 
	C54.518581,127.501434 54.219860,127.855438 53.449554,128.090546 
	C52.974525,127.934731 52.854553,127.796440 52.585457,127.427551 
z"/>
<path fill="#CAAFC5" opacity="1.000000" stroke="none" 
	d="
M64.069336,129.315445 
	C63.982243,128.656555 63.952934,128.141556 63.954063,127.242462 
	C65.651154,127.409569 64.931984,128.582047 64.375443,129.692444 
	C64.045631,129.758606 64.127113,129.459351 64.069336,129.315445 
z"/>
<path fill="#1F3360" opacity="1.000000" stroke="none" 
	d="
M101.057892,129.882355 
	C100.792000,130.057297 100.348373,130.038681 100.127228,130.015762 
	C100.114761,129.447647 100.323441,128.902466 100.968719,128.413879 
	C101.508347,128.891357 101.487442,129.304092 101.057892,129.882355 
z"/>
<path fill="#D9D8E0" opacity="1.000000" stroke="none" 
	d="
M75.201874,146.360428 
	C75.849190,146.184128 76.543816,146.308685 77.117981,146.774872 
	C76.414749,146.964752 75.831963,146.813019 75.201874,146.360428 
z"/>
<path fill="#891862" opacity="1.000000" stroke="none" 
	d="
M25.293306,46.903866 
	C25.697506,46.075924 26.082447,45.657631 26.922428,45.453331 
	C27.425447,46.238281 27.247141,46.727226 26.465137,47.286358 
	C25.814560,47.396172 25.544304,47.354843 25.293306,46.903866 
z"/>
<path fill="#2B2052" opacity="1.000000" stroke="none" 
	d="
M114.399796,114.176529 
	C114.628395,113.733780 115.183464,113.423172 116.078369,113.122650 
	C115.854218,113.524712 115.290245,113.916687 114.399796,114.176529 
z"/>
<path fill="#9B1775" opacity="1.000000" stroke="none" 
	d="
M28.813959,107.243584 
	C28.991770,107.676277 28.879614,108.202057 28.550350,108.900757 
	C28.396828,108.494682 28.460411,107.915672 28.813959,107.243584 
z"/>
<path fill="#D9D8E0" opacity="1.000000" stroke="none" 
	d="
M86.268517,147.017181 
	C85.993202,146.880875 85.898727,146.656982 85.895958,146.431961 
	C85.894928,146.348434 86.108925,146.262283 86.546356,146.158371 
	C86.941986,146.500183 86.814613,146.763428 86.268517,147.017181 
z"/>
<path fill="#891862" opacity="1.000000" stroke="none" 
	d="
M24.370564,47.833694 
	C24.484642,47.221798 24.691343,46.984226 25.130554,46.642418 
	C25.312565,46.494221 25.705481,46.766155 25.889214,46.918880 
	C26.174322,47.534241 26.032244,47.914345 25.360508,48.307709 
	C24.830050,48.315647 24.621367,48.239849 24.370564,47.833694 
z"/>
<path fill="#891862" opacity="1.000000" stroke="none" 
	d="
M23.675861,48.587864 
	C23.648878,48.144020 23.829777,47.946800 24.178175,47.634361 
	C24.468540,47.603619 24.608639,47.703907 24.945168,47.972137 
	C25.217836,48.526653 25.101948,48.850380 24.551552,49.184959 
	C24.143524,49.106075 24.005016,48.962379 23.675861,48.587864 
z"/>
<path fill="#891862" opacity="1.000000" stroke="none" 
	d="
M28.464340,43.957558 
	C28.062790,43.642853 28.248123,43.379738 28.861158,43.311214 
	C29.123848,43.613144 29.044636,43.780930 28.464340,43.957558 
z"/>
<path fill="#891862" opacity="1.000000" stroke="none" 
	d="
M29.116404,43.114449 
	C29.034168,42.616219 29.213089,42.348240 29.857021,42.322468 
	C30.165276,42.708729 30.105236,42.917358 29.827774,43.368416 
	C29.610350,43.610844 29.280840,43.280125 29.116404,43.114449 
z"/>
<path fill="#4DD8B6" opacity="1.000000" stroke="none" 
	d="
M130.915741,51.106979 
	C131.334198,51.121773 131.616791,51.294556 131.971436,51.713364 
	C132.043472,51.959389 131.809082,52.385372 131.677887,52.590042 
	C131.207108,52.634552 130.924683,52.404228 130.604462,51.843056 
	C130.509644,51.582165 130.779892,51.264965 130.915741,51.106979 
z"/>
<path fill="#891862" opacity="1.000000" stroke="none" 
	d="
M20.089296,55.801147 
	C19.878405,55.988132 19.400890,55.984058 19.162380,55.973122 
	C19.014906,55.669682 19.082941,55.371925 19.228292,54.868225 
	C19.328611,54.667534 19.736919,54.837185 19.919537,54.961784 
	C20.168163,55.262310 20.234177,55.438236 20.089296,55.801147 
z"/>
<path fill="#891862" opacity="1.000000" stroke="none" 
	d="
M30.083778,42.080269 
	C30.031048,41.602764 30.218353,41.343803 30.704147,41.033554 
	C30.919916,40.922428 31.220083,41.246445 31.369175,41.409363 
	C31.391327,41.768734 31.264389,41.965183 30.847073,42.358536 
	C30.556696,42.555435 30.241096,42.238976 30.083778,42.080269 
z"/>
<path fill="#891862" opacity="1.000000" stroke="none" 
	d="
M27.142885,45.126129 
	C27.062628,44.641441 27.247137,44.378292 27.742905,44.072647 
	C27.963259,43.966408 28.290911,44.292217 28.454437,44.455421 
	C28.489319,44.811295 28.360676,45.003960 27.948605,45.397690 
	C27.665176,45.598755 27.316750,45.283928 27.142885,45.126129 
z"/>
<path fill="#BFF5BB" opacity="1.000000" stroke="none" 
	d="
M113.972275,39.968037 
	C114.112122,39.657356 114.280472,39.373154 114.693588,39.015358 
	C114.938354,38.941761 114.993881,39.004097 115.018013,39.038158 
	C115.169647,39.510601 115.037590,39.860760 114.371429,40.088688 
	C114.061806,40.042763 114.000771,39.994518 113.972275,39.968037 
z"/>
<path fill="#1F3360" opacity="1.000000" stroke="none" 
	d="
M101.132385,128.115814 
	C101.151932,127.721039 101.338371,127.471428 101.705048,127.065033 
	C101.861351,126.890366 102.034912,127.010345 102.123108,127.068237 
	C102.296097,127.503120 102.221634,127.849442 101.786011,128.333344 
	C101.561600,128.497269 101.275337,128.243103 101.132385,128.115814 
z"/>
<path fill="#229CBA" opacity="1.000000" stroke="none" 
	d="
M135.897400,95.228813 
	C136.284180,95.385094 136.470398,95.707993 136.682617,96.322662 
	C136.708618,96.614441 136.620941,96.570877 136.582611,96.599335 
	C136.434662,96.501160 136.325073,96.374512 136.039276,96.068779 
	C135.807678,95.724937 135.752258,95.560188 135.897400,95.228813 
z"/>
<path fill="#9B1775" opacity="1.000000" stroke="none" 
	d="
M31.823090,103.165771 
	C32.060310,103.442162 31.923933,103.723869 31.419445,104.013245 
	C31.147816,103.722824 31.280537,103.439552 31.823090,103.165771 
z"/>
<path fill="#9B1775" opacity="1.000000" stroke="none" 
	d="
M30.831606,104.199310 
	C31.108086,104.479820 31.004818,104.734245 30.580143,105.026718 
	C30.451675,104.819733 30.516048,104.522552 30.831606,104.199310 
z"/>
<path fill="#9B1775" opacity="1.000000" stroke="none" 
	d="
M29.786139,106.111946 
	C30.030367,106.396263 29.891624,106.682587 29.390375,106.990128 
	C29.286669,106.777008 29.411770,106.477882 29.786139,106.111946 
z"/>
<path fill="#EB158F" opacity="1.000000" stroke="none" 
	d="
M18.624773,81.916336 
	C15.409283,78.408676 14.952209,74.276146 15.016832,69.581390 
	C14.961229,69.172401 15.110947,69.135010 15.186241,69.118164 
	C17.836094,66.362183 19.380083,62.571869 23.664627,61.161171 
	C25.784042,61.035992 27.128223,62.127033 28.933559,62.916969 
	C31.116394,64.744148 32.700676,62.640755 34.740108,62.793255 
	C35.063572,67.979523 35.099598,73.026184 35.055702,78.533997 
	C29.654682,79.970360 24.333584,80.945572 18.624773,81.916336 
z"/>
<path fill="#F3117F" opacity="1.000000" stroke="none" 
	d="
M120.616440,87.563660 
	C120.446503,89.724808 119.418663,91.135117 118.074997,92.716583 
	C115.872711,94.704132 113.592896,94.082741 111.001320,93.752197 
	C109.646950,93.574974 108.724236,93.836327 107.467407,94.318832 
	C105.893402,94.755470 104.720383,95.290657 103.024506,95.215912 
	C100.151909,94.660484 98.286568,93.353874 97.199509,90.588898 
	C97.153641,87.688675 95.525314,87.702454 93.744118,88.076958 
	C90.145126,88.833649 86.506973,88.980476 82.854568,88.794380 
	C80.880302,88.693779 78.810806,88.682762 77.518478,86.289642 
	C79.296295,81.248779 83.753685,80.980255 88.083405,79.846054 
	C91.881691,80.305328 95.256058,82.198105 99.052521,79.962234 
	C100.544724,78.884293 101.775703,78.077370 103.612534,77.668907 
	C107.206253,77.369537 109.662621,79.189796 112.545151,80.856583 
	C113.014801,81.183205 113.180679,81.333305 113.531380,81.747742 
	C113.883705,82.377281 114.031387,82.750053 114.266708,83.357613 
	C114.388062,83.579521 114.798569,83.837135 115.065010,83.830154 
	C115.524498,83.785454 115.717537,83.747734 116.223740,83.668961 
	C118.950615,83.616089 120.858948,84.167732 120.616440,87.563660 
z"/>
<path fill="#9722B7" opacity="1.000000" stroke="none" 
	d="
M72.289337,99.438942 
	C66.369446,99.805367 60.739853,100.108505 55.130672,99.889359 
	C46.828594,99.565002 39.242649,92.008682 38.829342,83.776817 
	C38.597385,79.156837 38.791325,74.515472 38.872395,69.417374 
	C41.221844,68.541000 41.379848,70.600975 42.257626,71.799942 
	C43.282185,73.199394 43.519958,75.186653 45.666607,76.208908 
	C46.662128,77.235672 47.121937,78.145874 47.425983,79.544220 
	C49.770126,90.466209 55.536636,94.701675 66.234024,93.698219 
	C68.557358,93.480270 70.902512,93.132217 72.844025,95.606537 
	C73.367981,97.092506 73.235985,98.152939 72.289337,99.438942 
z"/>
<path fill="#FBDE8D" opacity="1.000000" stroke="none" 
	d="
M74.994766,45.589695 
	C84.874809,45.372765 94.463844,45.382458 104.500870,45.521969 
	C106.540062,46.463444 106.989624,47.803368 106.575035,49.816547 
	C103.700233,52.034767 102.500587,53.941368 105.951630,56.394524 
	C107.408585,57.430195 108.569786,58.880791 108.365074,61.263893 
	C106.961998,63.595871 105.138359,64.338097 102.470428,63.850334 
	C96.938660,56.743832 89.686737,53.304768 81.061577,51.579060 
	C79.088104,51.810482 77.656563,51.362900 76.039856,50.236519 
	C75.026535,49.218849 74.642090,48.294243 74.488266,46.893406 
	C74.561768,46.287174 74.632759,46.051746 74.994766,45.589695 
z"/>
<path fill="#35DEEE" opacity="1.000000" stroke="none" 
	d="
M101.443863,128.762070 
	C101.727798,128.204147 101.894005,127.911026 102.135757,127.372025 
	C105.313560,122.564865 104.661987,118.880417 99.413704,113.000496 
	C94.026558,109.828514 90.606194,110.572411 85.382782,115.979874 
	C83.607674,116.059624 82.319046,115.556671 81.173500,113.954437 
	C80.423058,112.111794 80.479149,110.697708 81.632538,109.048813 
	C86.015999,108.178673 90.102875,108.688774 94.597610,108.364792 
	C95.459534,108.238365 95.896820,108.215538 96.660080,108.237198 
	C101.068253,108.746681 105.161743,108.425453 109.632484,108.311264 
	C110.787651,108.021324 111.560478,107.878067 112.704300,107.604683 
	C113.167572,107.727661 113.259842,107.980774 113.142349,108.579269 
	C106.435402,114.134590 104.904945,117.860909 107.280571,123.242935 
	C108.275833,125.361786 108.714920,127.130417 107.420967,129.334229 
	C107.096619,129.924438 106.945526,130.148651 106.496277,130.647430 
	C104.745049,131.607880 103.304482,132.404175 101.388718,131.146805 
	C101.113243,130.858780 100.952202,130.457748 100.872101,130.257523 
	C100.970047,129.713821 101.148087,129.370346 101.443863,128.762070 
z"/>
<path fill="#A20B5D" opacity="1.000000" stroke="none" 
	d="
M104.798515,24.839306 
	C107.084518,28.068464 107.674049,31.563501 108.740356,34.819019 
	C110.072281,38.885433 107.587692,42.014217 103.307152,41.975330 
	C94.350754,41.893959 85.385956,42.594463 76.148621,41.400677 
	C77.204597,39.115330 79.150444,39.333431 81.207909,39.377579 
	C93.132271,39.633488 94.314827,40.470688 99.590523,26.841579 
	C100.413437,24.715679 100.694359,22.253080 103.323082,20.832052 
	C105.134987,21.749693 104.191032,23.276159 104.798515,24.839306 
z"/>
<path fill="#C20A59" opacity="1.000000" stroke="none" 
	d="
M104.212494,20.676304 
	C101.677017,26.273325 99.269241,31.511723 97.125038,36.855873 
	C95.809944,40.133606 93.640724,41.245083 90.205917,41.066269 
	C85.754097,40.834511 81.280487,41.021488 76.337921,41.052689 
	C75.859589,41.077175 75.520332,40.993614 75.352936,40.943665 
	C74.083443,39.865917 74.262024,38.472996 74.217834,36.778732 
	C74.565392,35.899933 74.938179,35.534973 75.809547,35.182503 
	C76.966599,34.969227 77.718163,35.100243 78.816048,35.414558 
	C79.416412,35.507137 79.655792,35.535259 80.247116,35.626148 
	C88.348549,37.312626 94.120216,33.445602 97.394012,24.084892 
	C98.251793,19.364323 101.191978,15.937510 102.935837,11.561579 
	C103.335724,11.074022 103.527229,10.904036 104.089890,10.626377 
	C104.984268,10.414130 105.491982,10.465667 106.245499,10.965057 
	C106.823372,14.520267 104.939713,17.283764 104.212494,20.676304 
z"/>
<path fill="#31DAE1" opacity="1.000000" stroke="none" 
	d="
M124.506012,109.979645 
	C124.125229,109.812035 124.072716,109.641541 123.919228,109.223129 
	C123.505859,106.425575 120.769470,107.569603 119.333611,106.125366 
	C118.858131,105.830620 118.703636,105.653282 118.660706,105.141251 
	C124.129852,99.962585 127.087234,93.896843 128.063141,86.386734 
	C130.926331,83.817772 133.364014,85.723907 136.188843,86.796722 
	C138.174240,88.575333 136.706711,89.969696 136.130859,91.748566 
	C135.984146,92.291611 135.934097,92.510101 135.746399,93.032349 
	C135.480713,93.515984 135.352692,93.695862 135.026535,94.137299 
	C134.666351,94.541740 134.504333,94.684608 134.071045,94.996780 
	C133.050064,95.479073 132.250031,95.706879 131.403961,96.925125 
	C130.961960,97.625870 130.837357,97.795464 130.505325,98.203201 
	C129.119446,99.951965 129.646805,101.792114 129.243668,103.800293 
	C129.032135,105.324623 127.120041,106.061211 128.520859,107.820061 
	C129.054657,108.421165 129.276581,108.824226 129.491089,109.611626 
	C129.455582,110.707878 129.127899,111.329163 128.276520,112.014267 
	C126.936714,111.414886 126.375626,110.001297 124.506012,109.979645 
z"/>
<path fill="#EEC7EC" opacity="1.000000" stroke="none" 
	d="
M79.354111,36.683472 
	C78.519615,36.830368 77.917816,36.700157 77.121109,36.312210 
	C75.825455,35.061012 75.600563,33.683281 75.138977,32.068230 
	C74.885353,31.613188 74.789421,31.430124 74.650414,30.940058 
	C77.690430,20.754688 85.182831,15.491800 94.614471,11.828934 
	C95.973671,12.604023 95.944351,13.743478 95.901520,15.210926 
	C95.770279,15.769570 95.692627,15.987607 95.436546,16.504757 
	C91.809799,20.240179 88.746475,24.070889 84.644325,26.834894 
	C83.159782,27.835169 81.921051,29.175192 81.494553,31.414051 
	C80.906723,33.343449 80.526573,34.987251 79.354111,36.683472 
z"/>
<path fill="#F0138B" opacity="1.000000" stroke="none" 
	d="
M97.607452,89.724823 
	C98.877869,91.888603 100.641075,92.868301 102.786423,93.901596 
	C104.506874,95.905830 104.193245,97.594254 102.248154,99.394463 
	C97.266548,99.711983 92.615005,99.786476 87.504494,99.797867 
	C86.577713,95.379128 89.559898,97.493065 91.026962,97.152802 
	C90.009666,96.637558 88.159874,97.108879 86.790894,95.448547 
	C86.506554,94.896721 86.440514,94.649223 86.405106,94.011032 
	C89.196442,90.028381 93.090271,89.439682 97.607452,89.724823 
z"/>
<path fill="#ADF4CB" opacity="1.000000" stroke="none" 
	d="
M130.248840,51.402016 
	C130.750458,51.839943 130.991287,52.097721 131.389404,52.575104 
	C132.090622,54.266857 132.634537,55.739002 133.279114,57.550495 
	C132.386169,59.939930 130.683456,60.631325 128.125320,60.270309 
	C126.248131,55.368168 124.110519,51.015373 120.114525,47.391144 
	C119.503334,46.458088 119.283592,45.598888 118.082611,45.485527 
	C116.988487,45.235233 116.181435,44.887367 115.154587,44.292080 
	C115.095459,42.472248 115.734016,41.248249 117.692871,40.853737 
	C119.456696,41.282307 120.875252,41.592205 122.653908,41.959522 
	C123.959290,42.541893 123.946495,43.566250 124.407074,44.737587 
	C125.129135,45.944740 125.709518,46.832012 126.551910,47.899437 
	C127.871956,49.127014 128.929993,50.174442 130.248840,51.402016 
z"/>
<path fill="#E2AC90" opacity="1.000000" stroke="none" 
	d="
M71.210327,116.954308 
	C69.585709,114.678375 67.291008,114.541542 64.704193,114.248215 
	C63.518608,114.434486 62.681469,114.686241 61.422352,114.267754 
	C57.380455,114.181175 56.253448,111.587944 55.222958,108.428856 
	C60.408604,108.103737 65.729553,108.095573 71.513824,108.141373 
	C74.549469,110.790688 74.496315,113.615585 72.306244,116.905121 
	C71.901222,117.218346 71.446114,117.027229 71.210327,116.954308 
z"/>
<path fill="#72D1CB" opacity="1.000000" stroke="none" 
	d="
M71.958221,117.182083 
	C71.934990,114.506111 71.968750,111.793869 71.989838,108.638481 
	C74.977463,108.164803 77.977768,108.134270 81.422699,108.146545 
	C82.115372,108.278831 82.363419,108.368324 82.300941,108.702820 
	C81.929840,110.315895 81.869263,111.683952 81.783516,113.461853 
	C81.841499,116.799095 79.771217,118.118790 77.285858,119.489639 
	C74.977341,119.870079 74.069626,118.032860 72.261787,117.219894 
	C71.968033,117.019226 72.015205,117.145821 71.958221,117.182083 
z"/>
<path fill="#69EDC4" opacity="1.000000" stroke="none" 
	d="
M128.559784,83.111320 
	C128.173035,76.969055 128.120575,70.947990 128.148346,64.465027 
	C130.592178,61.935642 132.611069,62.474220 134.531006,65.162880 
	C134.570816,67.539833 134.729340,69.474060 136.797028,71.054840 
	C137.258713,72.740845 138.132645,74.002617 137.585831,75.829964 
	C134.914139,78.176895 129.888092,77.166344 129.731506,82.600815 
	C129.304794,82.995697 129.099442,83.114105 128.559784,83.111320 
z"/>
<path fill="#C91673" opacity="1.000000" stroke="none" 
	d="
M102.333221,99.740448 
	C102.286034,98.012131 102.653992,96.386787 103.057663,94.402328 
	C104.164055,93.717636 105.234741,93.392059 106.640350,93.014648 
	C107.815628,93.172783 108.647903,93.334373 109.540619,92.333496 
	C112.258690,91.643578 114.612427,92.534050 117.421219,92.911400 
	C114.042046,97.940208 108.987099,100.179886 102.333221,99.740448 
z"/>
<path fill="#E94090" opacity="1.000000" stroke="none" 
	d="
M34.052883,99.071564 
	C32.649349,97.446442 31.625122,95.849922 30.381393,94.011887 
	C30.088453,93.087166 30.015015,92.403969 29.875710,91.381104 
	C32.284374,88.980675 33.937897,90.425041 35.769058,92.673843 
	C36.063553,92.979393 36.001171,92.988335 36.014153,92.959625 
	C36.401798,93.403435 36.488144,93.984840 36.812466,94.773666 
	C38.988590,98.084274 40.988171,101.164276 42.926323,104.599159 
	C41.945839,105.814690 40.826248,105.410919 39.422451,105.244270 
	C38.972054,101.933128 37.318027,100.036232 34.052883,99.071564 
z"/>
<path fill="#A81EA3" opacity="1.000000" stroke="none" 
	d="
M45.240097,76.766785 
	C41.112701,75.910309 40.623161,72.438461 39.195442,69.208130 
	C39.003948,66.143631 39.056488,63.336246 39.261047,60.146492 
	C40.272419,59.574226 41.052292,59.035458 42.414581,59.301601 
	C43.353794,59.738220 43.754581,60.156746 44.182961,61.091419 
	C45.039932,64.491211 45.143650,67.612076 46.313549,70.953476 
	C46.809208,73.190483 46.800724,74.939339 45.240097,76.766785 
z"/>
<path fill="#F7D080" opacity="1.000000" stroke="none" 
	d="
M106.081909,49.897701 
	C105.677849,48.406925 105.332329,47.315491 104.967834,45.937920 
	C109.393944,44.495461 112.331711,47.415840 115.744019,49.871071 
	C117.079613,51.631756 117.550377,53.158531 116.064972,55.107971 
	C111.332268,55.968632 109.147820,52.354481 106.081909,49.897701 
z"/>
<path fill="#99F5CE" opacity="1.000000" stroke="none" 
	d="
M134.766830,67.307175 
	C133.586578,63.805439 131.224396,64.004341 128.607513,63.994625 
	C128.101135,62.965076 127.973686,61.927006 127.791252,60.500214 
	C129.323364,59.341225 130.600235,57.871479 132.975555,57.928425 
	C135.253082,58.436180 134.936676,60.553177 136.292511,61.843868 
	C138.245438,62.899715 137.183197,64.486458 137.464691,66.126190 
	C137.125610,67.513962 136.357193,67.720558 134.766830,67.307175 
z"/>
<path fill="#F66D78" opacity="1.000000" stroke="none" 
	d="
M52.913025,42.591240 
	C51.218410,43.128662 49.940571,43.515156 48.324509,43.954170 
	C44.803127,44.251633 44.452694,41.876053 43.958023,39.204151 
	C44.035686,38.478096 44.104221,38.190254 44.375652,37.503487 
	C47.152809,34.141903 50.051708,33.450920 53.662231,36.211674 
	C54.483532,38.010433 54.818523,39.461781 54.123192,41.383705 
	C53.724674,42.000557 53.527241,42.220436 52.913025,42.591240 
z"/>
<path fill="#F15B7E" opacity="1.000000" stroke="none" 
	d="
M44.650391,38.651848 
	C45.930210,40.417503 45.796711,42.487110 47.701088,43.830223 
	C45.859768,45.576206 43.733261,47.145721 40.967285,48.670860 
	C38.732613,46.520363 37.790096,44.207218 38.171844,41.122162 
	C38.732330,39.719025 39.509098,38.984600 40.776573,38.179955 
	C42.265129,37.686356 43.332550,37.747292 44.650391,38.651848 
z"/>
<path fill="#803DA4" opacity="1.000000" stroke="none" 
	d="
M96.049767,105.256851 
	C81.185196,105.391914 66.593170,105.391914 52.001137,105.391914 
	C52.001930,104.956573 52.002728,104.521225 52.003525,104.085884 
	C66.336601,104.085884 80.669678,104.085884 95.466469,104.108093 
	C96.318436,104.358948 96.436424,104.694466 96.049767,105.256851 
z"/>
<path fill="#3ADDD1" opacity="1.000000" stroke="none" 
	d="
M128.144760,83.361870 
	C128.225494,82.990128 128.617264,82.952568 128.813507,82.937927 
	C131.493286,80.747040 134.108917,78.899040 138.022827,79.658531 
	C139.097122,80.844612 139.060593,81.891930 138.621094,83.368675 
	C138.641388,85.168526 138.163818,86.398010 137.067596,87.770203 
	C133.836563,88.503540 131.618454,86.286888 128.539490,86.021744 
	C128.135696,85.248650 128.099854,84.491135 128.144760,83.361870 
z"/>
<path fill="#EDB276" opacity="1.000000" stroke="none" 
	d="
M114.611877,55.443176 
	C116.276939,53.960728 115.971581,52.410366 115.941360,50.550026 
	C119.100334,52.180031 120.274231,55.409885 121.233147,59.138935 
	C121.484497,60.101135 121.407257,60.665676 120.682861,61.490250 
	C119.504425,62.235432 118.616852,62.380932 117.235046,62.127975 
	C114.303970,60.600616 113.465187,58.533104 114.611877,55.443176 
z"/>
<path fill="#E95F92" opacity="1.000000" stroke="none" 
	d="
M36.033543,92.567299 
	C34.233559,92.332481 32.403568,91.685570 30.191708,91.040054 
	C26.308710,85.320999 31.565084,86.080849 34.674271,84.934921 
	C35.367348,87.315376 35.685440,89.735291 36.033543,92.567299 
z"/>
<path fill="#F42A7D" opacity="1.000000" stroke="none" 
	d="
M120.890808,87.556076 
	C119.921471,85.607178 118.378922,84.565086 115.553551,85.037971 
	C113.881424,81.956367 115.606445,79.580559 117.336571,76.882187 
	C119.512985,75.812103 120.669518,76.668983 121.695602,78.619690 
	C122.216232,81.769508 122.304039,84.546631 120.890808,87.556076 
z"/>
<path fill="#F44A7A" opacity="1.000000" stroke="none" 
	d="
M121.961548,78.524445 
	C120.761734,78.333961 119.641960,77.699570 118.198967,77.022171 
	C115.241783,74.323341 115.833160,71.232529 116.908676,67.704376 
	C117.726501,66.517067 118.535912,66.187935 119.917145,66.234428 
	C121.705933,66.871597 121.420860,68.121422 121.733063,69.571075 
	C121.958176,72.656021 121.999878,75.368279 121.961548,78.524445 
z"/>
<path fill="#F967AE" opacity="1.000000" stroke="none" 
	d="
M35.117241,62.708443 
	C34.075054,64.009178 33.226562,65.206352 32.147163,66.135178 
	C30.243187,67.773575 29.279648,66.866791 28.934471,64.346512 
	C27.125248,61.237186 28.558355,59.373901 30.983776,57.520660 
	C32.962116,57.010525 34.256809,57.475933 35.284744,59.217552 
	C35.523285,60.175339 35.399734,60.796322 35.249863,61.709263 
	C35.301361,62.009998 35.206936,62.484032 35.117241,62.708443 
z"/>
<path fill="#AF1E8A" opacity="1.000000" stroke="none" 
	d="
M43.402458,60.045948 
	C42.099064,59.963509 41.204456,59.921921 39.861454,59.822227 
	C39.177250,55.013752 41.427906,51.675648 45.699303,49.292213 
	C47.742886,51.631012 44.821911,53.596939 45.511864,56.250389 
	C45.559551,58.096603 45.149010,59.321381 43.402458,60.045948 
z"/>
<path fill="#D41C82" opacity="1.000000" stroke="none" 
	d="
M44.559807,56.357224 
	C43.518658,53.862122 44.651299,51.913826 45.950111,49.638744 
	C47.241447,48.655640 47.816635,47.055256 49.788246,47.134827 
	C51.050911,47.346378 52.018612,46.909252 53.184692,47.652927 
	C53.724110,48.287109 53.897182,48.729130 53.997620,49.558838 
	C53.947655,50.144958 53.893524,50.374367 53.678013,50.915695 
	C51.728436,52.976261 49.228310,53.677139 47.133263,55.584991 
	C46.259342,56.167496 45.607960,56.382702 44.559807,56.357224 
z"/>
<path fill="#C4189C" opacity="1.000000" stroke="none" 
	d="
M86.691223,94.861488 
	C88.879311,95.440536 90.760094,95.873398 92.805168,96.344055 
	C91.758698,98.958511 88.474129,97.028397 87.169342,99.422577 
	C84.663002,99.794640 82.280495,99.854515 79.456146,99.847168 
	C78.923447,99.577347 78.832565,99.374771 78.891640,98.874725 
	C80.598915,96.983986 83.469742,97.982201 84.919098,95.475441 
	C85.523003,94.967339 85.935776,94.799370 86.691223,94.861488 
z"/>
<path fill="#5C2B82" opacity="1.000000" stroke="none" 
	d="
M96.241898,105.542953 
	C95.842064,105.116264 95.894318,104.838242 95.932083,104.344086 
	C100.486435,103.912910 105.073799,103.348022 110.192764,105.693993 
	C105.201675,105.693993 100.954117,105.693993 96.241898,105.542953 
z"/>
<path fill="#932590" opacity="1.000000" stroke="none" 
	d="
M103.999191,21.359818 
	C103.853287,17.708918 105.557816,14.828698 106.033623,11.277277 
	C105.663498,10.546122 105.517258,10.124308 105.805099,9.352707 
	C108.732750,8.634555 108.606438,9.941331 107.888885,11.870310 
	C106.396797,15.881441 104.921432,19.914068 105.050568,24.742260 
	C104.045242,24.215143 104.066864,22.963039 103.999191,21.359818 
z"/>
<path fill="#F3A079" opacity="1.000000" stroke="none" 
	d="
M64.644196,37.609940 
	C66.661316,37.685532 68.376808,38.093292 70.391449,38.610096 
	C70.998032,39.525639 71.305473,40.332142 71.730576,41.434723 
	C70.424210,43.317398 68.575470,42.135185 66.523628,42.419579 
	C64.111664,41.436596 63.605911,39.934605 64.644196,37.609940 
z"/>
<path fill="#E95299" opacity="1.000000" stroke="none" 
	d="
M35.158573,61.063766 
	C34.722923,59.281624 33.586617,58.780312 32.249649,58.073997 
	C31.152386,55.638474 32.888035,54.342129 34.272350,52.544502 
	C35.618420,51.550056 36.760258,51.136387 38.347816,51.814323 
	C37.744328,54.707867 35.813034,56.967621 35.780636,60.284081 
	C35.623581,60.916355 35.498619,61.182842 35.158573,61.063766 
z"/>
<path fill="#A0846A" opacity="1.000000" stroke="none" 
	d="
M74.818405,45.212036 
	C75.285782,45.363071 75.602478,45.650402 75.608597,45.864120 
	C74.994965,46.912144 74.135963,47.489548 73.134781,47.460682 
	C66.628021,47.273067 60.098808,48.044498 52.812611,46.489700 
	C59.387978,43.889065 66.905136,45.362526 74.818405,45.212036 
z"/>
<path fill="#9945AF" opacity="1.000000" stroke="none" 
	d="
M119.450623,100.514977 
	C116.985023,102.628510 114.927284,104.901276 110.669159,103.455940 
	C114.915825,102.095078 117.580856,99.521400 120.349648,97.062576 
	C121.473480,98.612190 120.249557,99.338692 119.450623,100.514977 
z"/>
<path fill="#F22C7F" opacity="1.000000" stroke="none" 
	d="
M38.794090,51.792038 
	C37.682240,52.375866 36.743793,52.681076 35.511238,53.041691 
	C34.140877,53.526787 33.687222,52.826015 33.210236,51.610977 
	C34.301247,47.379303 36.506054,46.009762 40.529633,48.465599 
	C40.843388,48.757786 40.928242,48.871567 40.959068,48.935524 
	C40.315765,49.837456 39.641632,50.675438 38.794090,51.792038 
z"/>
<path fill="#9920AE" opacity="1.000000" stroke="none" 
	d="
M79.029709,98.611969 
	C79.069794,99.014091 79.053276,99.397873 79.033798,99.588898 
	C76.962067,99.820488 74.909813,99.861046 72.423729,99.818726 
	C71.995544,98.733101 72.001183,97.730347 72.010437,96.350906 
	C73.012764,94.731705 74.354271,94.575920 76.206146,94.899078 
	C77.954659,95.668221 78.490517,96.925293 79.029709,98.611969 
z"/>
<path fill="#D7A9C5" opacity="1.000000" stroke="none" 
	d="
M95.380707,15.225601 
	C94.710976,14.139762 94.322029,13.276232 94.899765,12.055554 
	C97.844925,10.492093 100.604454,8.821396 104.169342,9.693183 
	C104.433952,10.231030 104.490273,10.441297 104.286041,10.848358 
	C104.025490,11.045153 104.018257,11.005444 104.032341,11.020631 
	C101.546204,13.052589 99.007126,14.995659 95.380707,15.225601 
z"/>
<path fill="#39223F" opacity="1.000000" stroke="none" 
	d="
M65.542618,41.612740 
	C67.646950,41.821297 69.333252,41.844261 71.433899,41.799011 
	C67.930931,44.379955 63.556522,42.411602 59.422756,42.921478 
	C57.479717,43.161144 55.476906,42.916187 52.998711,42.816505 
	C52.496246,42.742168 52.726486,42.352100 52.858047,42.167763 
	C54.128094,40.828972 55.484589,40.152981 57.588734,40.104721 
	C60.383465,40.692009 63.011639,39.676338 65.542618,41.612740 
z"/>
<path fill="#A4EEC1" opacity="1.000000" stroke="none" 
	d="
M117.956055,40.648262 
	C116.929886,41.710083 117.047935,43.477119 115.254440,43.976273 
	C114.359642,43.957897 113.784470,43.871132 113.051453,43.534546 
	C113.248825,42.433037 113.604050,41.581352 114.010544,40.386215 
	C114.357109,39.917191 114.604019,39.728355 114.922348,39.274239 
	C116.155167,39.107067 117.348358,38.960556 117.956055,40.648262 
z"/>
<path fill="#2C7FA2" opacity="1.000000" stroke="none" 
	d="
M118.437286,104.862534 
	C118.827873,105.003677 118.883461,105.200790 118.975845,105.702927 
	C117.956017,108.318146 115.478088,108.027092 113.293976,108.929916 
	C112.928993,108.680527 112.925407,108.436378 112.998550,107.833389 
	C114.390564,105.913734 116.193733,105.312469 118.437286,104.862534 
z"/>
<path fill="#3AAAC4" opacity="1.000000" stroke="none" 
	d="
M109.553818,108.106995 
	C105.964874,109.736526 101.814247,108.943604 97.336304,108.485550 
	C101.021645,108.204262 105.057228,108.126839 109.553818,108.106995 
z"/>
<path fill="#3AAAC4" opacity="1.000000" stroke="none" 
	d="
M82.450912,108.948669 
	C81.990410,108.947838 81.935257,108.567749 81.901291,108.378540 
	C85.948692,108.144783 90.030075,108.100227 94.566849,108.158432 
	C91.052361,109.670494 86.938492,108.546539 82.450912,108.948669 
z"/>
<path fill="#E9A287" opacity="1.000000" stroke="none" 
	d="
M121.987381,69.503647 
	C121.594490,69.201187 121.272514,68.458595 120.917160,67.399040 
	C119.504555,65.567924 118.359375,63.987164 119.637482,61.458000 
	C120.227882,60.787327 120.558578,60.449287 121.070503,59.803116 
	C122.714737,62.583836 121.889442,65.865578 121.987381,69.503647 
z"/>
<path fill="#B68FAF" opacity="1.000000" stroke="none" 
	d="
M75.247856,35.875721 
	C75.071243,37.530571 75.109604,38.825806 75.166748,40.507378 
	C72.297081,39.456505 73.143303,36.878159 73.459167,34.236294 
	C73.926041,33.816200 74.174408,33.688446 74.803711,33.735085 
	C75.478622,34.410179 75.571342,34.945721 75.247856,35.875721 
z"/>
<path fill="#A4EEC1" opacity="1.000000" stroke="none" 
	d="
M117.958000,45.799850 
	C119.352921,43.692165 119.733871,44.857227 119.962631,46.755520 
	C119.348503,46.734650 118.734482,46.375629 117.958000,45.799850 
z"/>
<path fill="#EB507F" opacity="1.000000" stroke="none" 
	d="
M53.088001,47.620674 
	C52.120068,47.757744 51.347340,47.668835 50.352886,47.388603 
	C50.578690,46.849648 51.026222,46.502014 51.743401,46.056126 
	C52.013046,45.957870 52.048569,46.151222 52.095772,46.237442 
	C52.335930,46.372608 52.528893,46.421551 52.970657,46.635685 
	C53.240711,46.998817 53.261959,47.196758 53.088001,47.620674 
z"/>
<path fill="#8F538C" opacity="1.000000" stroke="none" 
	d="
M39.027084,105.267860 
	C40.081039,105.026245 41.093109,105.007896 42.485039,104.971802 
	C42.905190,105.117622 42.945473,105.281197 43.037712,105.692467 
	C41.977512,105.944115 40.865360,105.948067 39.333542,105.945908 
	C38.913868,105.939804 38.985191,105.491127 39.027084,105.267860 
z"/>
<path fill="#EEC7EC" opacity="1.000000" stroke="none" 
	d="
M75.130280,33.837685 
	C74.637634,34.120083 74.448143,34.072056 73.968170,33.983994 
	C73.840767,33.022842 74.003853,32.101727 74.387138,30.906834 
	C74.607338,30.633053 74.806808,30.817369 74.905731,30.910397 
	C75.653000,31.751486 75.768661,32.590771 75.130280,33.837685 
z"/>
<path fill="#F5417B" opacity="1.000000" stroke="none" 
	d="
M104.364090,11.063004 
	C104.065727,10.867902 104.105965,10.690652 104.261917,10.267082 
	C104.759384,9.656624 105.141121,9.292482 105.779648,9.003838 
	C106.035255,9.480199 106.034073,9.881064 106.039421,10.580420 
	C105.598198,10.946224 105.150452,11.013539 104.364090,11.063004 
z"/>
<path fill="#64125C" opacity="1.000000" stroke="none" 
	d="
M34.794449,60.882664 
	C34.943493,60.678200 35.346642,60.683689 35.547592,60.666779 
	C35.727840,60.986698 35.707134,61.323524 35.493896,61.835175 
	C34.839111,61.875519 34.272335,61.815334 34.794449,60.882664 
z"/>
<path fill="#E95F92" opacity="1.000000" stroke="none" 
	d="
M36.970802,94.699799 
	C36.685497,94.511993 36.381981,94.019699 36.052795,93.229156 
	C36.335617,93.419044 36.644104,93.907173 36.970802,94.699799 
z"/>
<path fill="#25D4F4" opacity="1.000000" stroke="none" 
	d="
M76.473145,119.367462 
	C78.149078,117.447685 79.693123,115.846916 81.497749,114.058922 
	C82.959953,114.074020 84.057053,114.460556 84.916855,115.872673 
	C84.591576,117.784927 84.095276,119.391266 83.530472,121.355141 
	C82.632370,125.441742 82.903931,129.311081 82.090256,133.030624 
	C81.055367,137.761337 79.114159,139.123810 74.221764,138.351532 
	C73.865662,138.111237 73.641045,137.679199 73.566025,137.447571 
	C73.501373,136.991745 73.511749,136.767532 73.445251,136.215515 
	C73.439140,135.278671 73.509918,134.669632 73.746620,133.801636 
	C77.441048,131.147171 77.105667,127.500267 76.949303,123.955147 
	C76.886269,122.525978 76.036446,121.185379 76.473145,119.367462 
z"/>
<path fill="#1674B2" opacity="1.000000" stroke="none" 
	d="
M73.815735,138.497803 
	C77.630226,138.482086 79.641502,136.800323 80.324005,133.053497 
	C80.993134,129.380081 82.021263,125.772064 83.176903,121.924011 
	C84.458694,126.267082 84.123077,130.864212 83.741760,135.435257 
	C83.563065,137.577393 82.658798,139.590042 81.074837,141.143188 
	C77.949684,144.207565 75.155579,143.326294 73.815735,138.497803 
z"/>
<path fill="#B8E9EC" opacity="1.000000" stroke="none" 
	d="
M76.349442,118.854874 
	C79.388702,122.404762 79.495758,126.280312 78.524155,130.227951 
	C78.065483,132.091553 77.373260,134.155655 74.287750,133.664307 
	C73.397285,128.256485 76.675224,122.557381 72.078278,117.361328 
	C73.675827,116.731094 75.007996,117.386742 76.349442,118.854874 
z"/>
<path fill="#AE18C3" opacity="1.000000" stroke="none" 
	d="
M91.647980,116.657486 
	C91.671494,117.147041 91.505188,117.301147 91.169052,117.517883 
	C88.457909,118.399940 88.874672,120.569244 88.878906,122.456604 
	C88.889130,127.008766 89.000679,131.560699 89.135452,136.581223 
	C87.462433,139.723083 87.089493,143.653290 82.449036,143.960602 
	C85.886986,139.537735 86.772133,134.270279 86.733414,128.685577 
	C86.712715,125.699623 86.668213,122.681358 87.064415,119.735504 
	C87.369530,117.466888 88.588005,115.611771 91.647980,116.657486 
z"/>
<path fill="#1674B2" opacity="1.000000" stroke="none" 
	d="
M73.268127,136.109375 
	C73.633385,136.125076 73.744743,136.420380 73.596725,136.994781 
	C73.230522,136.976746 73.122826,136.681778 73.268127,136.109375 
z"/>
<path fill="#9D18B5" opacity="1.000000" stroke="none" 
	d="
M110.512878,123.051117 
	C111.866348,126.251305 113.124443,129.384659 109.856003,132.374008 
	C109.287903,132.558792 109.022110,132.545700 108.518425,132.211731 
	C107.637764,129.488663 108.631813,127.252495 109.157829,124.602615 
	C109.462090,123.737503 109.730095,123.306496 110.512878,123.051117 
z"/>
<path fill="#1D92C0" opacity="1.000000" stroke="none" 
	d="
M101.015472,131.142532 
	C102.608665,130.654617 104.104095,130.450455 105.971161,130.316315 
	C106.735710,130.889511 106.841095,131.457016 106.342957,132.519287 
	C104.711449,131.043304 101.188919,136.572556 101.015472,131.142532 
z"/>
<path fill="#5F1680" opacity="1.000000" stroke="none" 
	d="
M110.875900,122.744949 
	C110.551155,123.207710 110.298225,123.392014 109.998978,123.896088 
	C109.867188,124.098541 109.450829,124.335442 109.308350,124.142914 
	C109.090721,121.544167 108.583473,119.119888 109.706497,116.466217 
	C110.251549,118.235519 110.556900,120.292351 110.875900,122.744949 
z"/>
<path fill="#9D18B5" opacity="1.000000" stroke="none" 
	d="
M109.342102,132.352997 
	C108.753975,133.882065 107.686943,134.289932 106.121414,133.252975 
	C105.965187,132.963531 105.995987,132.994614 105.976898,132.986862 
	C106.594803,132.436005 107.118942,131.718506 108.362122,131.677582 
	C108.827744,131.863754 108.979134,131.998932 109.342102,132.352997 
z"/>
<path fill="#D1F7C0" opacity="1.000000" stroke="none" 
	d="
M126.490936,28.139591 
	C126.968323,29.972351 127.365730,31.758947 126.277084,33.742184 
	C122.256592,34.316738 121.957787,31.310921 121.063126,28.458591 
	C122.697357,28.090649 124.386742,28.079473 126.490936,28.139591 
z"/>
<path fill="#9AF1BC" opacity="1.000000" stroke="none" 
	d="
M124.619217,44.635384 
	C123.398697,44.659843 123.035736,43.766670 123.022766,42.332283 
	C123.132362,41.175785 123.440720,40.462082 124.582535,40.024734 
	C124.812195,41.362545 124.750938,42.787918 124.619217,44.635384 
z"/>
<path fill="#9AF1BC" opacity="1.000000" stroke="none" 
	d="
M125.577560,38.139877 
	C125.760811,38.312469 125.661552,38.610207 125.256866,39.017487 
	C125.090797,38.842018 125.205338,38.554680 125.577560,38.139877 
z"/>
<path fill="#231F5F" opacity="1.000000" stroke="none" 
	d="
M108.803192,131.367203 
	C107.976875,132.141586 107.277412,132.554596 106.267868,132.973358 
	C106.049850,132.336853 106.141891,131.694595 106.288376,130.719330 
	C106.342804,130.386337 106.366447,130.314835 106.354874,130.279007 
	C107.402931,128.490631 107.603577,126.555809 107.796753,124.294113 
	C108.232162,124.013199 108.418747,124.004776 108.885605,123.973373 
	C109.165871,123.950386 109.516640,124.025192 109.691910,124.061867 
	C110.139275,126.480270 110.041069,128.811768 108.803192,131.367203 
z"/>
<path fill="#1D92C0" opacity="1.000000" stroke="none" 
	d="
M107.885284,123.899666 
	C107.726425,125.995155 108.629036,128.183838 106.674393,130.085419 
	C106.595848,128.307739 106.848404,126.372307 107.228836,124.025665 
	C107.356705,123.614456 107.724983,123.777702 107.885284,123.899666 
z"/>
<path fill="#22ACB0" opacity="1.000000" stroke="none" 
	d="
M138.321350,84.309570 
	C138.015549,82.912605 137.943542,81.810173 137.810257,80.298065 
	C136.904572,78.929123 136.532410,77.867683 137.149521,76.277634 
	C136.738312,74.576927 136.218430,73.214302 135.631134,71.491379 
	C135.513947,70.923859 135.464172,70.716644 135.540359,70.215698 
	C135.838913,69.797325 136.011490,69.672684 136.499283,69.499313 
	C137.017227,69.514038 137.219955,69.577499 137.573502,69.921661 
	C137.975571,70.682487 138.226837,71.162605 138.710922,71.785744 
	C138.614517,75.762039 143.108490,79.418861 139.179932,83.686432 
	C138.849930,84.198524 138.702530,84.401314 138.321350,84.309570 
z"/>
<path fill="#219EBA" opacity="1.000000" stroke="none" 
	d="
M138.006516,84.355370 
	C138.087555,84.015038 138.542435,84.003883 138.769867,83.999802 
	C140.045822,86.304497 137.652405,88.077408 138.011642,90.628555 
	C137.765289,91.196671 137.538895,91.428574 137.146484,91.837769 
	C136.967819,92.002724 137.008057,92.003799 136.999527,91.985565 
	C136.623260,92.491585 136.276825,93.038605 135.315613,93.140823 
	C134.585785,91.250504 135.659866,89.976616 136.617432,88.311211 
	C137.132843,86.897949 137.529160,85.796822 138.006516,84.355370 
z"/>
<path fill="#6ED9E6" opacity="1.000000" stroke="none" 
	d="
M135.005341,93.016289 
	C135.494431,92.740440 135.975403,92.450485 136.723679,92.063934 
	C136.767090,92.793526 136.543198,93.619728 136.208618,94.754059 
	C136.097946,95.062195 135.948563,95.467613 135.905823,95.678650 
	C135.404236,96.180710 134.945404,96.471733 134.244904,96.889999 
	C133.575470,96.961205 133.212204,96.774620 132.769257,96.190948 
	C132.601242,95.208565 132.968948,94.740555 133.772110,94.196732 
	C134.027756,94.017212 134.001282,93.995613 134.003250,94.012497 
	C134.211533,93.781242 134.438187,93.553337 134.857147,93.176407 
	C135.029129,93.007141 134.997208,93.002182 135.005341,93.016289 
z"/>
<path fill="#6ED9E6" opacity="1.000000" stroke="none" 
	d="
M137.210175,91.916199 
	C137.148911,91.716988 137.330017,91.431252 137.757721,91.061310 
	C137.820404,91.261292 137.636475,91.545479 137.210175,91.916199 
z"/>
<path fill="#ED5F87" opacity="1.000000" stroke="none" 
	d="
M54.384220,127.460945 
	C54.134380,126.663429 54.119907,126.210114 54.170219,125.422318 
	C56.381031,120.773354 54.355515,117.245155 52.011200,113.409744 
	C54.766098,113.181641 56.014286,116.169312 58.914612,116.915176 
	C60.254009,119.182610 59.054035,121.420403 59.676842,123.976425 
	C60.005463,125.563843 59.653740,126.609543 58.741791,127.904373 
	C57.068466,129.094833 55.801056,128.849167 54.384220,127.460945 
z"/>
<path fill="#770C5C" opacity="1.000000" stroke="none" 
	d="
M59.360535,125.215500 
	C58.652199,122.597603 58.512264,120.261726 59.162170,117.493423 
	C59.741310,116.598015 60.243866,116.137718 60.916779,115.483345 
	C61.280899,114.653328 61.699944,114.416077 62.685699,114.825516 
	C63.028824,115.476746 63.031113,115.881027 63.038673,116.587570 
	C60.903969,118.782738 58.352535,120.567184 61.577469,123.822807 
	C62.074909,124.094856 62.221966,124.326088 62.188480,124.926880 
	C61.260880,125.773796 60.476978,125.819160 59.360535,125.215500 
z"/>
<path fill="#ED5F87" opacity="1.000000" stroke="none" 
	d="
M63.251637,114.933044 
	C62.595978,115.123947 62.165421,115.175430 61.410995,115.258087 
	C61.073586,115.082092 61.060036,114.874924 61.047646,114.356766 
	C61.877445,114.050339 62.706085,114.054901 63.946861,114.136139 
	C64.064911,114.406433 63.770824,114.600037 63.251637,114.933044 
z"/>
<path fill="#ED5F87" opacity="1.000000" stroke="none" 
	d="
M51.842285,112.842010 
	C51.691769,112.870605 51.418320,112.675529 51.022133,112.254257 
	C51.172718,112.224831 51.446033,112.421585 51.842285,112.842010 
z"/>
<path fill="#F5DCEC" opacity="1.000000" stroke="none" 
	d="
M27.517776,45.835533 
	C27.952696,45.465439 28.193069,45.273178 28.502131,44.820297 
	C28.917381,44.483936 29.167940,44.287064 29.489992,43.819420 
	C29.891645,43.447937 30.127851,43.235008 30.437832,42.763748 
	C30.809826,42.378311 31.036713,42.172287 31.377811,41.754822 
	C31.807344,41.349411 32.096420,41.126537 32.626957,40.773216 
	C33.645744,41.080860 34.021790,41.790264 34.241394,43.035522 
	C34.207558,44.847069 33.547832,46.007778 32.539402,47.426476 
	C29.014624,50.969563 26.710432,55.157177 22.336418,57.778877 
	C21.469305,57.843189 20.991976,57.730026 20.268827,57.248024 
	C19.992912,56.826763 19.992210,56.656490 19.934956,56.237175 
	C19.878405,55.988132 20.053097,55.552849 20.077625,55.319618 
	C21.422102,53.350998 22.742054,51.615604 24.172020,49.564991 
	C24.624781,49.154346 24.870344,48.944954 25.080160,48.380836 
	C25.403875,47.944744 25.666157,47.749397 26.000690,47.312828 
	C26.505423,46.738506 26.937901,46.405407 27.517776,45.835533 
z"/>
<path fill="#F35580" opacity="1.000000" stroke="none" 
	d="
M35.204315,18.485176 
	C35.946697,17.733019 36.641251,17.382113 37.628296,16.992575 
	C38.849831,17.669363 39.416698,18.599646 39.598923,20.178133 
	C40.028732,23.566896 41.848072,26.239288 41.504898,29.799442 
	C41.524307,31.942949 41.736004,33.711311 39.944263,35.318573 
	C39.008495,35.740795 38.433372,35.763008 37.482063,35.390961 
	C38.361710,31.879025 38.064217,28.744417 36.511086,25.597837 
	C35.486774,23.522625 34.865444,21.272692 35.204315,18.485176 
z"/>
<path fill="#B417C5" opacity="1.000000" stroke="none" 
	d="
M32.731728,33.873695 
	C31.890860,30.116970 31.709980,26.587254 32.043579,22.585434 
	C35.671825,24.990524 36.198330,28.913073 35.578064,33.055359 
	C35.446194,33.936001 34.826431,36.548431 32.731728,33.873695 
z"/>
<path fill="#F0C6DC" opacity="1.000000" stroke="none" 
	d="
M36.926750,35.414543 
	C37.496861,35.184971 37.881641,35.212868 38.547447,35.309326 
	C38.985081,35.557400 39.141697,35.736912 39.338612,36.272636 
	C39.307831,38.416168 37.755226,39.500427 37.097336,41.410427 
	C36.056953,42.934025 35.129047,44.063644 33.229221,44.045021 
	C32.944874,43.022991 32.947708,42.228207 32.909477,41.038094 
	C34.159420,38.985851 35.450420,37.328934 36.926750,35.414543 
z"/>
<path fill="#FC9AAF" opacity="1.000000" stroke="none" 
	d="
M40.358543,30.256371 
	C39.422077,27.241186 38.728050,24.498224 38.048744,21.366028 
	C42.756142,18.428669 44.217007,18.842632 50.589478,24.730988 
	C51.045525,25.088730 51.200699,25.156509 51.569344,25.363035 
	C52.301552,28.804014 53.877529,31.453020 56.857277,33.624893 
	C58.000885,35.396049 57.349636,36.455509 55.696396,37.487747 
	C54.759880,37.725216 54.226063,37.656918 53.413078,37.154282 
	C50.414436,35.126362 47.957714,35.822113 45.291290,37.795387 
	C42.556709,38.335594 42.616261,36.285908 42.205120,34.929604 
	C41.749115,33.425301 41.758888,31.775188 40.358543,30.256371 
z"/>
<path fill="#FCAFC0" opacity="1.000000" stroke="none" 
	d="
M50.874893,24.642153 
	C49.428066,24.971199 47.937553,25.094118 46.879326,23.710560 
	C44.833908,21.036329 41.900124,20.878420 38.476089,20.984695 
	C38.029221,19.904642 37.994984,18.832485 37.940769,17.357136 
	C44.932980,12.447918 48.549946,14.491245 50.874893,24.642153 
z"/>
<path fill="#F89D93" opacity="1.000000" stroke="none" 
	d="
M54.867493,37.291203 
	C55.639359,36.154251 56.286850,35.332466 57.003128,34.196579 
	C59.471260,34.922901 61.870605,35.963322 64.607887,37.140755 
	C65.182732,38.583099 65.419640,39.888428 65.808594,41.496048 
	C63.608746,41.836365 61.256847,41.874401 58.468868,41.845367 
	C57.314972,40.089005 55.427612,39.321934 54.867493,37.291203 
z"/>
<path fill="#770C5C" opacity="1.000000" stroke="none" 
	d="
M66.508057,116.524101 
	C66.477730,116.537872 66.538383,116.510330 66.508057,116.524101 
z"/>
<path fill="#1866A2" opacity="1.000000" stroke="none" 
	d="
M128.046753,112.509232 
	C128.254425,111.669098 128.553116,111.158676 129.038422,110.408569 
	C129.482880,109.274643 129.459320,108.405754 128.895645,107.247902 
	C128.691772,106.222778 128.780960,105.546463 129.118683,104.558311 
	C129.405914,104.081490 129.578522,103.929939 130.400421,103.862762 
	C131.348358,104.550346 131.647003,105.153557 132.011398,105.989716 
	C132.035522,107.824043 132.220383,109.473167 131.895370,111.014801 
	C131.481247,112.979118 130.745789,115.048210 128.046753,112.509232 
z"/>
<path fill="#88E6F5" opacity="1.000000" stroke="none" 
	d="
M134.519043,108.156090 
	C136.039719,110.126671 136.223953,112.141312 135.209595,114.583221 
	C134.684891,114.956474 134.223572,114.981674 133.416840,114.988197 
	C133.291916,112.907074 133.512405,110.844627 133.633499,108.393997 
	C133.751892,108.047211 133.969696,108.088608 134.519043,108.156090 
z"/>
<path fill="#3BE2C6" opacity="1.000000" stroke="none" 
	d="
M137.806274,69.748062 
	C137.724319,70.202362 137.372452,70.165604 137.198929,70.131256 
	C136.421509,69.374542 136.161270,68.562752 136.569550,67.223297 
	C136.740402,65.493126 136.724152,64.165367 136.613861,62.445808 
	C136.732147,62.054188 136.944458,62.054371 137.474365,62.064667 
	C137.824036,64.481102 137.856125,66.887428 137.806274,69.748062 
z"/>
<path fill="#DB3F7B" opacity="1.000000" stroke="none" 
	d="
M58.815704,125.188065 
	C59.767406,124.990456 60.475437,125.046432 61.536308,125.139420 
	C62.345726,125.512688 62.509163,125.956978 62.079597,126.749161 
	C61.068874,127.544609 61.562992,128.049759 61.948280,128.767975 
	C62.026394,130.044098 62.000721,131.116028 61.969406,132.589569 
	C59.491043,133.517242 59.391491,136.395920 57.289230,137.741913 
	C56.239376,138.034943 55.398193,138.082153 54.131290,138.116577 
	C53.497749,136.761047 51.981018,135.921097 52.352127,134.050507 
	C54.491066,132.410400 55.282040,129.883301 57.590935,128.360840 
	C58.077194,127.239334 58.324615,126.340492 58.815704,125.188065 
z"/>
<path fill="#F664B0" opacity="1.000000" stroke="none" 
	d="
M24.115217,61.673080 
	C20.910086,63.975124 19.234274,67.391991 15.583679,69.037949 
	C15.832582,67.265778 16.403625,65.430229 17.076221,63.243866 
	C19.501272,61.811069 19.262293,58.572727 22.033134,57.514549 
	C23.415646,57.225246 24.401249,57.138096 25.382778,58.357395 
	C25.774431,59.858730 25.358744,60.760437 24.115217,61.673080 
z"/>
<path fill="#F1BCDE" opacity="1.000000" stroke="none" 
	d="
M22.243309,57.772881 
	C20.051331,59.188496 20.313654,62.186607 17.506554,62.893364 
	C17.965614,61.091480 18.753452,59.289913 19.767452,57.242691 
	C20.447769,57.006485 20.901924,57.015934 21.696793,57.020905 
	C22.208035,57.197392 22.378559,57.378353 22.243309,57.772881 
z"/>
<path fill="#84E4EE" opacity="1.000000" stroke="none" 
	d="
M132.591339,95.679932 
	C133.120865,96.105972 133.410889,96.330116 133.852081,96.785751 
	C132.628784,98.848640 131.365372,100.717934 131.935028,103.584396 
	C131.976135,103.970085 131.511627,104.014778 131.280670,103.980957 
	C131.049713,103.947136 130.975174,103.931862 130.960144,103.966812 
	C128.250305,102.415977 128.890945,100.066620 129.780945,97.370468 
	C130.054153,97.018219 129.999130,97.004112 130.017975,97.025375 
	C130.266998,96.699043 130.474976,96.338562 130.900269,95.761894 
	C131.532974,95.396408 131.938080,95.370247 132.591339,95.679932 
z"/>
<path fill="#5C0856" opacity="1.000000" stroke="none" 
	d="
M62.039726,126.867722 
	C61.820629,126.586998 61.862331,126.184669 61.896587,125.479393 
	C61.902748,124.958023 61.916351,124.739609 61.928909,124.192406 
	C62.126274,123.031403 62.324692,122.199173 62.820717,121.229004 
	C63.087959,122.430336 63.057590,123.769600 63.055870,125.511505 
	C62.823193,126.191467 62.561859,126.468803 62.039726,126.867722 
z"/>
<path fill="#F886A2" opacity="1.000000" stroke="none" 
	d="
M57.522800,128.054321 
	C57.018280,130.663239 57.136356,133.959991 52.770432,133.767715 
	C52.419823,133.373947 52.412399,133.031708 52.423698,132.432251 
	C52.460846,131.952515 52.479271,131.729950 52.675564,131.223541 
	C52.938297,130.224319 53.023159,129.508942 53.101257,128.433289 
	C53.390942,127.936684 53.644115,127.743614 54.001434,127.305283 
	C55.171181,127.401321 56.193504,127.685890 57.522800,128.054321 
z"/>
<path fill="#DB3F7B" opacity="1.000000" stroke="none" 
	d="
M52.700397,131.110840 
	C52.898777,131.246292 52.850292,131.537277 52.575203,131.993835 
	C52.345333,131.861816 52.380310,131.564117 52.700397,131.110840 
z"/>
<path fill="#F31386" opacity="1.000000" stroke="none" 
	d="
M24.098444,62.053905 
	C24.120340,61.124451 24.462393,60.367199 24.942932,59.328667 
	C25.744583,54.849628 28.198959,52.077950 32.354057,50.338772 
	C32.954597,50.366718 33.190804,50.426136 33.714851,50.710556 
	C34.234020,51.523090 34.465351,52.110622 34.956902,52.897621 
	C34.794502,54.901489 33.289173,55.965641 32.132351,57.659721 
	C30.656178,59.538456 29.130795,61.019054 28.957714,63.632339 
	C27.090837,64.193161 25.748575,63.225292 24.098444,62.053905 
z"/>
<path fill="#1F1546" opacity="1.000000" stroke="none" 
	d="
M89.174240,80.922867 
	C85.185013,82.423882 81.601242,83.943016 77.767578,85.740303 
	C77.319054,86.539085 77.037827,87.010620 76.338196,87.685455 
	C75.736511,88.039215 75.472763,88.141846 74.787613,88.314178 
	C71.015282,88.815674 68.898094,86.957108 66.906693,84.087509 
	C65.656754,80.833115 65.968430,77.875687 66.172501,74.499451 
	C66.391815,71.451569 65.533089,68.812103 66.469391,65.771744 
	C66.485107,63.798744 66.797829,62.357197 67.924377,60.703094 
	C69.998413,58.497562 72.306107,58.212082 75.135918,58.299019 
	C80.300308,60.238453 85.017342,62.194401 89.749031,64.114250 
	C92.234657,65.122772 94.534233,66.355667 96.076141,69.181412 
	C96.302895,69.820778 96.368240,70.085518 96.526314,70.750412 
	C97.017029,72.807541 96.831451,74.442055 96.298439,76.461304 
	C94.772095,79.507385 92.606522,80.918343 89.174240,80.922867 
z"/>
<path fill="#FCF3F3" opacity="1.000000" stroke="none" 
	d="
M118.165192,66.639999 
	C117.897255,70.024696 117.823502,73.052505 117.812752,76.529739 
	C117.041412,79.441895 116.207077,81.904625 115.278030,84.702934 
	C115.183319,85.038513 115.060188,85.024239 115.053162,85.085823 
	C114.616013,85.423477 114.146667,85.514404 113.355560,85.210144 
	C113.036522,84.534813 113.005196,84.093971 112.998711,83.322136 
	C113.689148,81.171982 111.980362,79.590439 112.484573,77.403702 
	C112.343010,75.530403 111.885193,74.060265 112.252441,72.195007 
	C112.477493,70.235191 112.126816,68.726280 111.192688,67.027084 
	C110.074852,64.998154 108.439995,63.622971 108.192444,61.177582 
	C106.992783,59.032543 105.215797,57.854851 103.487045,56.602432 
	C101.984848,55.514153 100.725174,54.181263 101.009781,52.113312 
	C101.360603,49.564194 103.530266,50.013016 105.617416,49.590511 
	C109.675003,49.838791 112.096596,52.141174 114.626907,54.904686 
	C115.453934,56.922050 116.000946,58.751488 116.791412,60.839981 
	C118.551537,62.552357 119.003769,64.277641 118.165192,66.639999 
z"/>
<path fill="#FA61AC" opacity="1.000000" stroke="none" 
	d="
M76.005142,86.925491 
	C76.375015,86.368279 76.748825,86.184341 77.320160,86.009430 
	C84.151779,88.606407 90.713982,86.435043 97.295670,85.706642 
	C98.240463,85.602081 99.170921,85.367905 100.135361,85.188637 
	C101.239990,87.558289 99.017632,88.090866 98.137283,89.624603 
	C94.615669,91.465378 91.109390,92.549820 87.165352,93.445938 
	C82.334595,97.356613 77.196007,95.459129 72.702835,94.292488 
	C69.771530,93.531380 71.585579,90.507530 73.547325,88.472504 
	C74.624016,87.994545 75.357384,87.736336 76.005142,86.925491 
z"/>
<path fill="#FB7D7E" opacity="1.000000" stroke="none" 
	d="
M95.016861,77.389168 
	C95.194649,75.266708 95.360268,73.519516 95.543488,71.333313 
	C95.607491,70.608482 95.653877,70.322670 95.984650,69.705048 
	C98.948479,67.923759 101.417679,68.740524 104.178986,70.373306 
	C105.103653,71.404335 105.407135,72.244095 105.484467,73.628723 
	C105.645302,75.624603 105.671234,77.136147 104.013351,78.558968 
	C102.623970,79.522408 101.610542,80.230301 100.293777,81.020538 
	C97.606621,81.068184 95.365059,80.821037 95.016861,77.389168 
z"/>
<path fill="#F71F7C" opacity="1.000000" stroke="none" 
	d="
M104.036438,78.873184 
	C103.778061,77.487495 103.918724,76.160477 104.089485,74.431488 
	C107.931664,71.755669 110.528526,73.908073 113.206497,76.848862 
	C113.543587,78.634323 113.541939,80.042053 113.095810,81.741730 
	C109.512611,82.326447 107.546753,79.086601 104.036438,78.873184 
z"/>
<path fill="#E3607F" opacity="1.000000" stroke="none" 
	d="
M94.746017,77.191422 
	C96.217888,78.614815 97.613922,79.954628 99.773285,80.854492 
	C96.528053,84.028923 92.948639,83.089989 89.058014,81.164955 
	C90.484756,79.432877 93.003395,79.253670 94.746017,77.191422 
z"/>
<path fill="#F166AC" opacity="1.000000" stroke="none" 
	d="
M109.451836,92.084206 
	C109.945679,93.434357 110.797279,95.106903 108.913841,95.736717 
	C107.452919,96.225258 107.184448,94.848190 106.998650,93.339767 
	C107.699524,92.665810 108.423782,92.368790 109.451836,92.084206 
z"/>
<path fill="#F34D82" opacity="1.000000" stroke="none" 
	d="
M112.843445,82.274231 
	C112.858360,80.634361 112.926674,79.235077 112.991631,77.415749 
	C113.149094,76.874260 113.309921,76.752815 113.713593,76.811378 
	C113.833771,78.815224 113.711098,80.639069 113.305984,82.727036 
	C113.023552,82.991150 112.896835,82.514816 112.843445,82.274231 
z"/>
<path fill="#F42A7D" opacity="1.000000" stroke="none" 
	d="
M112.914062,85.161491 
	C113.507179,85.018784 113.946518,85.061913 114.715988,85.126221 
	C114.912674,85.931786 114.689110,86.711845 113.697815,86.615990 
	C113.048012,86.553154 112.585564,86.130157 112.914062,85.161491 
z"/>
<path fill="#EA148E" opacity="1.000000" stroke="none" 
	d="
M75.967911,87.785835 
	C75.436768,88.569992 74.770264,89.069405 74.175224,89.642952 
	C73.210922,90.572411 72.049461,91.674706 72.480331,93.024757 
	C73.001419,94.657471 74.739166,94.059227 75.972099,94.054695 
	C79.297585,94.042480 82.622498,93.874527 86.395805,93.694336 
	C86.874962,93.850906 86.905952,94.081528 86.967735,94.659912 
	C86.715401,95.144554 86.468124,95.329391 86.126724,95.755173 
	C83.373116,97.747124 80.639969,98.173416 77.382675,96.280304 
	C75.627007,95.943512 74.236450,95.932671 72.429970,95.948021 
	C69.989639,94.511246 67.886902,95.494522 65.792023,95.744690 
	C54.981125,97.035728 46.974899,91.028191 45.880642,80.423454 
	C48.429169,77.753098 51.190861,79.081726 53.840149,79.619209 
	C58.493114,80.563164 62.734760,82.993561 67.895340,83.491150 
	C69.710457,85.576317 71.327377,87.364281 74.612923,86.905258 
	C75.231949,87.191872 75.526215,87.394424 75.967911,87.785835 
z"/>
<path fill="#F21084" opacity="1.000000" stroke="none" 
	d="
M68.280594,83.066437 
	C67.705917,85.982353 66.267067,86.019440 64.208672,85.124939 
	C58.602566,82.688721 52.756226,81.020424 46.305401,80.028946 
	C45.650009,79.212387 45.407875,78.405235 45.020199,77.314735 
	C44.882095,75.333977 44.889538,73.636551 44.899101,71.515472 
	C50.464222,67.148643 61.965641,68.313820 67.683334,73.722923 
	C68.088470,76.935974 68.189438,79.795074 68.280594,83.066437 
z"/>
<path fill="#F69777" opacity="1.000000" stroke="none" 
	d="
M104.209732,71.015388 
	C101.490646,70.639069 99.144623,70.334846 96.398293,70.038635 
	C95.863518,70.169754 95.729042,70.292877 95.406296,70.217651 
	C92.014069,65.675758 86.533394,65.554848 82.306999,63.095921 
	C80.462486,62.022778 78.386482,61.347519 76.164017,60.233490 
	C75.599464,58.658535 76.349960,57.882721 77.697952,57.053429 
	C80.809715,56.398098 83.434906,57.148155 86.472542,57.625374 
	C91.223137,60.728252 96.186699,62.002899 101.709984,62.766289 
	C104.159973,63.258984 105.785675,62.005119 107.882935,61.022293 
	C109.494270,62.253349 110.775887,63.663219 112.139359,65.385078 
	C112.765617,67.570419 111.496635,68.529564 109.985725,69.753113 
	C108.098495,70.900276 106.468323,71.583717 104.209732,71.015388 
z"/>
<path fill="#FCC376" opacity="1.000000" stroke="none" 
	d="
M102.019226,62.582005 
	C96.464119,64.842773 91.554405,63.980656 87.264603,59.225323 
	C84.299492,56.674461 80.382362,55.308704 80.696472,50.450027 
	C87.976738,50.770145 94.340057,53.095085 99.563148,58.078587 
	C100.759209,59.219776 101.989700,60.371708 102.019226,62.582005 
z"/>
<path fill="#FBA276" opacity="1.000000" stroke="none" 
	d="
M80.535553,50.108276 
	C81.718338,53.730095 85.811127,54.920948 86.948349,58.658787 
	C84.214088,59.003567 81.402077,59.221287 78.329353,58.046021 
	C75.079880,55.808311 72.003838,59.481232 68.875320,57.414654 
	C68.342957,56.805172 68.170120,56.376102 68.064644,55.560936 
	C68.542740,52.033401 71.946114,52.132885 73.820992,49.991409 
	C74.412369,49.407639 74.825974,49.182510 75.635651,49.016953 
	C77.385857,49.361732 78.779968,49.718807 80.535553,50.108276 
z"/>
<path fill="#EC676E" opacity="1.000000" stroke="none" 
	d="
M75.965935,48.703117 
	C75.819008,49.287113 75.606712,49.535801 75.155930,49.895615 
	C74.307869,50.571381 73.574989,50.862190 72.333633,50.725815 
	C69.846367,47.860611 66.815903,48.571358 63.580948,48.499420 
	C60.045708,48.195072 56.812355,49.205708 53.470680,47.402382 
	C52.878620,46.995647 52.635345,46.843582 52.279671,46.488155 
	C59.615669,46.218658 67.088371,46.113659 75.087891,46.043251 
	C75.723175,46.852421 75.831650,47.627003 75.965935,48.703117 
z"/>
<path fill="#F5417B" opacity="1.000000" stroke="none" 
	d="
M94.895050,15.180935 
	C97.360313,12.760036 99.824280,10.886532 103.649277,10.998102 
	C104.441902,15.923130 100.273354,18.934456 98.991226,23.506771 
	C94.969032,31.125042 88.300476,34.538475 80.414871,36.842846 
	C80.105019,37.022232 79.609909,37.030064 79.365662,36.995323 
	C79.330589,35.194847 79.539757,33.429119 79.923195,31.324497 
	C82.306534,28.630909 85.344475,27.549131 87.978096,25.846172 
	C91.423264,23.618456 94.364716,21.024689 94.414223,16.114534 
	C94.507736,15.630651 94.608765,15.493647 94.895050,15.180935 
z"/>
<path fill="#D50B60" opacity="1.000000" stroke="none" 
	d="
M80.457184,37.188004 
	C80.193588,34.729382 82.291519,34.820633 83.651321,34.142258 
	C88.993126,31.477352 94.089828,28.473776 98.639862,24.040638 
	C97.205284,33.653255 89.712410,39.239231 80.457184,37.188004 
z"/>
<path fill="#E25995" opacity="1.000000" stroke="none" 
	d="
M74.864220,34.509987 
	C74.893616,33.375450 74.960106,32.582794 75.015625,31.396780 
	C79.331757,30.769314 75.477859,34.217255 76.927322,35.666134 
	C76.500153,36.051758 76.074081,36.049046 75.340454,36.140831 
	C74.989029,35.774181 74.945175,35.313026 74.864220,34.509987 
z"/>
<path fill="#4CE5F1" opacity="1.000000" stroke="none" 
	d="
M129.185181,104.013901 
	C129.370300,104.939888 129.596954,105.596962 129.880905,106.597015 
	C129.745361,107.642456 129.341537,108.192337 128.451294,108.797897 
	C123.491982,107.761002 124.675873,106.046524 127.986740,103.885292 
	C128.567169,103.490112 128.908295,103.540390 129.185181,104.013901 
z"/>
<path fill="#2676A2" opacity="1.000000" stroke="none" 
	d="
M129.593567,104.209770 
	C128.904800,104.172707 128.697357,104.019943 128.362320,103.709518 
	C128.039047,101.344269 126.910149,98.932312 129.672394,97.063461 
	C129.916840,99.134010 129.257736,101.300484 130.803101,103.634201 
	C130.644577,104.046761 130.344040,104.091743 129.593567,104.209770 
z"/>
<path fill="#28BFDD" opacity="1.000000" stroke="none" 
	d="
M128.366028,109.165405 
	C128.226532,108.154037 128.528717,107.462410 129.650009,107.023643 
	C131.035339,108.009560 130.584869,108.960747 129.469193,110.024307 
	C129.006119,109.890388 128.787201,109.611893 128.366028,109.165405 
z"/>
<path fill="#219EBA" opacity="1.000000" stroke="none" 
	d="
M132.988678,95.650620 
	C132.548859,95.947891 132.267853,96.017838 131.770508,96.081207 
	C131.279449,96.174133 131.005676,96.277512 130.341675,96.179916 
	C130.682312,94.641472 131.811691,93.956009 133.680466,93.964645 
	C133.734024,94.484612 133.440277,94.952011 132.988678,95.650620 
z"/>
<path fill="#219EBA" opacity="1.000000" stroke="none" 
	d="
M134.776794,93.080627 
	C134.851791,93.293091 134.674454,93.579048 134.251190,93.947197 
	C134.178299,93.737625 134.351364,93.445869 134.776794,93.080627 
z"/>
<path fill="#2676A2" opacity="1.000000" stroke="none" 
	d="
M129.916763,96.250351 
	C130.217667,96.000351 130.483902,96.021751 131.151672,96.056946 
	C131.257477,96.369026 130.961746,96.667297 130.351425,97.006104 
	C129.985260,96.871674 129.933685,96.696716 129.916763,96.250351 
z"/>
<path fill="#F7509B" opacity="1.000000" stroke="none" 
	d="
M94.114555,15.873684 
	C96.801407,17.327105 97.092865,18.859983 95.263962,21.397587 
	C91.600121,26.481201 86.596375,29.218634 80.464172,30.974312 
	C80.227089,29.074509 80.883095,27.169281 82.440399,26.233234 
	C86.925812,23.537210 89.924751,19.274250 94.114555,15.873684 
z"/>
<path fill="#5FF1CF" opacity="1.000000" stroke="none" 
	d="
M136.815094,75.954880 
	C138.020645,76.928482 137.883865,78.074844 137.789581,79.547516 
	C135.031403,80.764854 133.020065,83.460899 129.393219,82.953003 
	C128.992050,75.919350 128.992050,75.919350 136.815094,75.954880 
z"/>
<path fill="#44F9B7" opacity="1.000000" stroke="none" 
	d="
M136.282318,69.835266 
	C136.078751,70.342232 136.001358,70.514336 135.743835,70.908752 
	C132.173462,69.309898 132.109482,69.185883 133.768402,66.981621 
	C134.068069,66.893555 134.055359,66.923805 134.064301,66.926636 
	C134.918289,67.725906 136.164536,68.157936 136.282318,69.835266 
z"/>
<path fill="#F76187" opacity="1.000000" stroke="none" 
	d="
M68.084244,73.624161 
	C60.890652,71.012932 53.460907,70.383102 45.377541,71.070786 
	C42.685143,68.661346 42.892601,65.721291 43.226036,62.351265 
	C47.018112,59.128708 50.455055,62.023674 54.384285,62.559097 
	C58.630676,65.480354 63.093639,64.285660 67.647263,64.712875 
	C68.023239,67.673195 68.102119,70.422325 68.084244,73.624161 
z"/>
<path fill="#FA7681" opacity="1.000000" stroke="none" 
	d="
M55.420982,63.911022 
	C51.143742,64.613060 47.800724,62.195328 43.677567,61.953354 
	C43.225483,61.505230 43.150391,61.078346 43.034485,60.328278 
	C43.369682,58.983402 43.745693,57.961716 44.170204,56.614174 
	C44.643898,55.967278 45.069088,55.646240 45.731125,55.203236 
	C49.103924,54.891144 52.227280,54.888134 55.673859,55.837139 
	C57.533878,56.799625 58.539726,57.984966 58.810112,60.106773 
	C58.415699,62.167259 57.353043,63.221905 55.420982,63.911022 
z"/>
<path fill="#69EDC4" opacity="1.000000" stroke="none" 
	d="
M136.373535,70.152542 
	C135.541916,69.287422 134.927689,68.404709 134.193329,67.225731 
	C134.747009,66.919022 135.420807,66.908592 136.425629,66.859528 
	C136.836884,67.638641 136.917099,68.456406 137.011353,69.685539 
	C137.025406,70.096916 136.590912,70.134941 136.373535,70.152542 
z"/>
<path fill="#FC90AD" opacity="1.000000" stroke="none" 
	d="
M40.076302,30.389488 
	C45.221817,30.304195 43.225422,34.815639 44.732620,37.685432 
	C44.972134,37.970112 44.973461,38.441013 44.972794,38.675640 
	C43.937401,38.977318 42.902676,39.044369 41.478638,39.117256 
	C38.489704,39.920757 38.421398,38.305805 38.756531,36.030685 
	C38.940922,35.579296 38.846207,35.498093 38.837337,35.437988 
	C40.192474,34.103592 39.945480,32.404659 40.076302,30.389488 
z"/>
<path fill="#F88C87" opacity="1.000000" stroke="none" 
	d="
M54.677986,36.966057 
	C55.206776,39.128387 61.842335,36.191162 58.208378,41.516785 
	C56.632793,41.863686 55.232800,41.949078 53.411209,42.008949 
	C53.008472,40.566872 53.027340,39.150322 53.080036,37.304836 
	C53.530613,36.902626 53.947361,36.929356 54.677986,36.966057 
z"/>
<path fill="#F74E88" opacity="1.000000" stroke="none" 
	d="
M34.172821,50.656273 
	C33.829464,50.941910 33.656231,50.948257 33.222984,50.952621 
	C31.302748,50.394360 30.130083,49.497967 30.718681,47.133408 
	C31.480408,45.969017 32.072987,45.162159 32.803802,44.086540 
	C33.718781,42.930161 34.495518,42.042538 35.479553,40.938255 
	C36.523659,40.313385 37.381554,40.116676 38.646355,40.742283 
	C39.635593,43.365009 40.271931,45.707188 40.875828,48.403576 
	C38.432480,48.317577 36.082432,48.121700 34.172821,50.656273 
z"/>
<path fill="#F47B9E" opacity="1.000000" stroke="none" 
	d="
M39.246391,40.876747 
	C38.170895,40.965717 37.342537,40.908604 36.100517,40.786541 
	C36.616592,39.187630 37.546333,37.653667 38.708500,35.849503 
	C39.062599,36.832821 38.897350,38.211559 40.733597,38.997597 
	C40.557388,39.658947 40.025455,40.194805 39.246391,40.876747 
z"/>
<path fill="#F66D77" opacity="1.000000" stroke="none" 
	d="
M118.336212,66.994125 
	C117.642967,65.280746 117.314926,63.564606 117.010872,61.473755 
	C117.751923,61.085232 118.468987,61.071423 119.541611,61.091492 
	C120.240982,62.853905 120.584785,64.582443 120.906181,66.696518 
	C120.156319,67.051834 119.428871,67.021591 118.336212,66.994125 
z"/>
<path fill="#FDBDAA" opacity="1.000000" stroke="none" 
	d="
M71.467087,49.338810 
	C72.603905,49.723812 73.383774,49.860672 74.560318,50.019020 
	C74.710052,53.538872 71.177177,52.776592 69.157562,54.534714 
	C65.464699,57.827988 61.559128,58.500820 56.838684,56.854156 
	C54.419163,55.498104 52.000488,54.645782 52.699219,51.151440 
	C52.896255,50.759583 52.976063,50.414875 53.013443,50.241959 
	C53.648087,49.488232 54.248184,48.911491 55.487644,48.607246 
	C56.178806,48.544075 56.456543,48.532608 57.151505,48.514080 
	C59.525124,48.494400 61.481541,48.502144 63.864559,48.500416 
	C66.564270,48.695774 68.913078,48.016705 71.467087,49.338810 
z"/>
<path fill="#FBAFB2" opacity="1.000000" stroke="none" 
	d="
M52.537144,50.782448 
	C52.839325,52.991676 55.172298,53.696415 55.965530,55.776390 
	C56.145924,56.272003 56.245998,56.427734 56.164806,56.793808 
	C52.789955,56.573902 49.297432,58.378685 46.184776,55.401897 
	C47.401890,52.732121 49.571003,51.450718 52.537144,50.782448 
z"/>
<path fill="#F2196E" opacity="1.000000" stroke="none" 
	d="
M64.174530,49.077736 
	C61.929169,49.439766 59.922882,49.571159 57.482231,49.682175 
	C56.859692,49.636368 56.671513,49.610947 56.213432,49.676529 
	C55.221859,49.869892 54.500179,49.972244 53.414665,50.071815 
	C53.022221,49.575848 52.993618,49.082657 52.928902,48.218060 
	C52.892792,47.846653 52.996601,47.469543 53.071400,47.289192 
	C56.452961,47.079350 59.759727,47.049862 63.521027,47.044472 
	C64.549683,47.555973 64.636864,48.163303 64.174530,49.077736 
z"/>
<path fill="#AD1BA8" opacity="1.000000" stroke="none" 
	d="
M77.024002,96.306862 
	C79.711021,95.953430 82.404480,95.952515 85.547340,95.949883 
	C85.096931,99.270615 82.339424,98.873207 79.460938,99.015442 
	C77.696487,98.829826 77.046684,98.018959 77.024002,96.306862 
z"/>
<path fill="#F8529B" opacity="1.000000" stroke="none" 
	d="
M30.608288,46.973820 
	C31.000526,48.204052 31.824202,49.284824 32.802998,50.659302 
	C29.935726,52.976418 27.880047,55.922993 25.356350,58.866974 
	C24.440128,58.286037 23.583284,58.033222 22.283701,57.997337 
	C21.937531,57.986443 22.002533,57.502987 22.020020,57.259708 
	C24.801252,53.734875 27.564999,50.453316 30.608288,46.973820 
z"/>
<path fill="#F4F4F6" opacity="1.000000" stroke="none" 
	d="
M75.691818,81.160782 
	C72.040176,76.451050 73.864380,71.323814 74.102928,66.420753 
	C74.191490,64.600311 76.286308,64.731224 77.741432,65.457733 
	C80.990982,67.080147 84.281693,68.648544 87.393501,70.509987 
	C90.223129,72.202637 89.910187,74.368813 87.179794,75.762062 
	C83.521210,77.628929 80.198219,80.204445 75.691818,81.160782 
z"/>
<path fill="#FAAAB1" opacity="1.000000" stroke="none" 
	d="
M55.239616,64.289444 
	C55.159073,62.496559 56.230885,61.834549 57.703690,61.130203 
	C60.232666,58.412502 63.091385,57.420456 66.865059,57.797462 
	C68.433075,58.404949 69.177719,59.224854 69.261154,60.921112 
	C68.841980,62.346050 68.517624,63.346806 68.068817,64.635818 
	C63.726276,66.604538 59.503353,68.464996 55.239616,64.289444 
z"/>
<path fill="#F5B5A5" opacity="1.000000" stroke="none" 
	d="
M69.515808,61.165611 
	C68.605400,60.655533 68.044472,59.965771 67.187927,59.111130 
	C66.646843,57.746319 67.415764,57.327946 68.701324,57.075962 
	C71.201759,56.501461 73.340813,55.813835 75.522934,55.314316 
	C77.107849,54.951508 79.060547,54.438938 78.066254,57.680313 
	C77.351067,58.474190 76.774826,58.971584 76.055511,59.722198 
	C73.817497,59.838150 71.661842,59.337563 69.515808,61.165611 
z"/>
<path fill="#F3117F" opacity="1.000000" stroke="none" 
	d="
M76.245529,87.882706 
	C75.802124,87.813667 75.533066,87.590034 75.126389,87.141632 
	C75.141388,86.813934 75.294006,86.711014 75.723907,86.580154 
	C76.140755,86.944183 76.280319,87.336151 76.245529,87.882706 
z"/>
<path fill="#E3607F" opacity="1.000000" stroke="none" 
	d="
M95.246506,70.260513 
	C95.218025,70.019302 95.608780,70.008179 95.803383,70.027405 
	C95.966095,70.264893 95.897362,70.470840 95.676437,70.779396 
	C95.561096,70.894295 95.274986,70.501724 95.246506,70.260513 
z"/>
<path fill="#FA3078" opacity="1.000000" stroke="none" 
	d="
M103.861000,71.330360 
	C105.327744,70.316856 106.818810,69.690422 108.649605,68.983032 
	C110.673141,68.927216 112.314934,69.069710 113.738686,70.765121 
	C114.039574,72.728340 114.092422,74.440308 114.050858,76.571823 
	C113.956444,76.991379 113.472466,76.988022 113.230370,76.991859 
	C110.273026,76.011169 107.557785,75.026642 104.481064,74.035812 
	C104.041504,73.258820 103.963417,72.488129 103.861000,71.330360 
z"/>
<path fill="#F34D82" opacity="1.000000" stroke="none" 
	d="
M114.048637,70.650330 
	C112.304222,70.950760 110.517677,71.209526 109.171013,69.216133 
	C109.935768,68.014542 110.882210,67.127007 112.024933,65.968262 
	C113.573860,66.928413 113.979927,68.549622 114.048637,70.650330 
z"/>
<path fill="#FA8D81" opacity="1.000000" stroke="none" 
	d="
M69.024986,56.717140 
	C68.455597,57.580158 67.866943,58.051815 67.085304,58.734867 
	C64.183823,59.621124 61.475327,60.295986 58.380669,60.981438 
	C57.977112,59.581520 57.052620,58.619244 56.143600,57.287189 
	C55.983536,57.004150 56.015846,56.559185 56.030846,56.337730 
	C60.048576,55.700226 64.051308,55.284180 68.476013,54.812271 
	C68.933907,55.279533 68.969818,55.802662 69.024986,56.717140 
z"/>
<path fill="#F72967" opacity="1.000000" stroke="none" 
	d="
M64.360687,49.446037 
	C63.952606,48.748882 63.969765,48.189388 63.981243,47.349236 
	C66.587494,47.691807 69.887772,45.298744 71.826538,49.223877 
	C69.477997,49.585865 67.131958,49.584785 64.360687,49.446037 
z"/>
<path fill="#EB507F" opacity="1.000000" stroke="none" 
	d="
M56.224815,49.795395 
	C56.160343,49.470585 56.442303,49.369770 56.918640,49.563442 
	C56.867275,49.715611 56.686687,49.769428 56.224815,49.795395 
z"/>
</svg>